<svg xmlns="http://www.w3.org/2000/svg" viewBox="0 0 58 46.63"><defs><style>.cls-1,.cls-4{fill:#f9f6c0;}.cls-2{fill:#f4e4b5;}.cls-3{fill:#e0d190;}.cls-3,.cls-4{stroke:#f4e4b5;}.cls-11,.cls-12,.cls-3,.cls-4,.cls-5,.cls-6,.cls-7,.cls-8{stroke-miterlimit:10;}.cls-5{fill:#fff;stroke:#000;stroke-width:0.25px;}.cls-6{fill:#aab8ba;stroke:#9aa7ad;}.cls-6,.cls-7,.cls-8{stroke-width:0.75px;}.cls-7{fill:#846c66;stroke:#72635a;}.cls-8{fill:#3083a0;stroke:#2b6c77;}.cls-9{fill:#d1d8db;}.cls-10{fill:#a07f7a;}.cls-11{fill:#2170bf;}.cls-11,.cls-12{stroke:#fff;stroke-width:0.5px;}.cls-12{fill:#5da1d8;}.cls-13{opacity:0.94;}.cls-14{fill:#fff19f;}</style></defs><g id="Слой_3" data-name="Слой 3"><rect class="cls-1" x="3.25" y="17.77" width="25.08" height="16.62" rx="1.8"/><path class="cls-2" d="M29.28,28.38a.8.8,0,0,1,.8.8v13a.8.8,0,0,1-.8.8H7.8a.8.8,0,0,1-.8-.8v-13a.8.8,0,0,1,.8-.8H29.28m0-2H7.8A2.8,2.8,0,0,0,5,29.18v13A2.8,2.8,0,0,0,7.8,45H29.28a2.8,2.8,0,0,0,2.8-2.8v-13a2.8,2.8,0,0,0-2.8-2.8Z" transform="translate(-2.75 -9.62)"/><path class="cls-3" d="M41.38,37.1V27.62C41.38,25.37,40,24,37,25l-5.78,2.41V45H41.38Z" transform="translate(-2.75 -9.62)"/><path class="cls-4" d="M38.43,24H15.26a2.8,2.8,0,0,0-.95.17L6.47,27a.19.19,0,0,0,.07.37l24.25.22,7.75-3A.29.29,0,0,0,38.43,24Z" transform="translate(-2.75 -9.62)"/><rect class="cls-4" x="32.25" y="31.38" width="23" height="4" rx="0.85"/><rect class="cls-3" x="35.25" y="27.38" width="17" height="4" rx="0.81"/><path class="cls-5" d="M41,37" transform="translate(-2.75 -9.62)"/></g><g id="Слой_4" data-name="Слой 4"><path class="cls-6" d="M50,23.62l-9.78,9.75L34.55,39C30,39.92,30,37.21,30,37.21l8.46-8.43L47.27,20Z" transform="translate(-2.75 -9.62)"/><path class="cls-7" d="M57.34,14.53a20.19,20.19,0,0,1-4.1,4.91c-1.37,1.27-2.5,2.14-2.5,2.14s0,3.08-.33,3.13c-1.25.13-4.18-3.21-4.18-3.21a1,1,0,0,1,0-1.36L51.38,14l2.7-3.23.61-.71C58.17,10.63,58.39,12.48,57.34,14.53Z" transform="translate(-2.75 -9.62)"/><path class="cls-8" d="M49,18.05" transform="translate(-2.75 -9.62)"/><path class="cls-9" d="M40.22,33.37,34.55,39C30,39.92,30,37.21,30,37.21l8.46-8.43Z" transform="translate(-2.75 -9.62)"/><path class="cls-10" d="M57.34,14.53a20.19,20.19,0,0,1-4.1,4.91A9.94,9.94,0,0,0,51.38,14l2.7-3.23A14.46,14.46,0,0,1,57.34,14.53Z" transform="translate(-2.75 -9.62)"/></g><g id="Слой_2" data-name="Слой 2"><path class="cls-11" d="M3,46.93v1.62A1.93,1.93,0,0,0,4.4,50.4l4.2,1.2A1.93,1.93,0,0,1,10,53.45v.62A1.92,1.92,0,0,0,11.93,56H51.07A1.92,1.92,0,0,0,53,54.07v-.62a1.93,1.93,0,0,1,1.4-1.85l4.2-1.2A1.93,1.93,0,0,0,60,48.55V46.93A1.92,1.92,0,0,0,58.07,45H4.93A1.92,1.92,0,0,0,3,46.93Z" transform="translate(-2.75 -9.62)"/><path class="cls-11" d="M54.5,51.5" transform="translate(-2.75 -9.62)"/><path class="cls-11" d="M8.5,51.5" transform="translate(-2.75 -9.62)"/></g><g id="Слой_5" data-name="Слой 5"><path class="cls-12" d="M3,47v1.67a2,2,0,0,0,1.41,1.92l4.24,1.24c.84.24,45.36.24,46.2,0l4.24-1.24a2,2,0,0,0,1.41-1.92V47a2,2,0,0,0-1.94-2H4.94A2,2,0,0,0,3,47Z" transform="translate(-2.75 -9.62)"/></g><g id="Слой_6" data-name="Слой 6"><g class="cls-13"><path class="cls-14" d="M58.05,43.13v-.89a1.34,1.34,0,0,0-.16-.68,1.19,1.19,0,0,0-.62-.46,3,3,0,0,0-.9-.06h-.92a.73.73,0,0,0-.53.22.75.75,0,0,0-.22.53.77.77,0,0,0,.75.75h.79a5.58,5.58,0,0,1,.71,0l-.2,0a.55.55,0,0,1,.17,0l-.18-.08.06,0-.16-.11,0,0-.11-.15a.43.43,0,0,1,0,.07l-.08-.18,0,.08,0-.2a4.38,4.38,0,0,1,0,.51v.55a.77.77,0,0,0,.22.53.75.75,0,0,0,.53.22.77.77,0,0,0,.75-.75Z" transform="translate(-2.75 -9.62)"/></g><g class="cls-13"><path class="cls-14" d="M54.73,39.17l.06-1a2.12,2.12,0,0,0,0-.56,1.13,1.13,0,0,0-.48-.67,1.8,1.8,0,0,0-1.12-.17l-1,.06a.79.79,0,0,0-.53.22.75.75,0,0,0-.22.53.77.77,0,0,0,.22.53.75.75,0,0,0,.53.22l.8,0a4.33,4.33,0,0,1,.72,0l-.2,0,.13,0-.18-.08.07,0-.15-.12,0,.06L53.32,38a.22.22,0,0,1,0,.08l-.08-.17a.56.56,0,0,1,0,.12l0-.2a3.18,3.18,0,0,1,0,.62l0,.7a.73.73,0,0,0,.22.53.75.75,0,0,0,.53.22.77.77,0,0,0,.53-.22.85.85,0,0,0,.22-.53Z" transform="translate(-2.75 -9.62)"/></g><g class="cls-13"><path class="cls-14" d="M32.14,25a5.82,5.82,0,0,1-2.2.53H27.6l-4.83,0a.75.75,0,0,0,0,1.5l5,0c.8,0,1.61,0,2.42,0a6.7,6.7,0,0,0,2.32-.57.78.78,0,0,0,.53-.92.76.76,0,0,0-.92-.53Z" transform="translate(-2.75 -9.62)"/></g></g></svg>