<svg xmlns="http://www.w3.org/2000/svg" xmlns:xlink="http://www.w3.org/1999/xlink" viewBox="0 0 58.77 57.89"><defs><style>.cls-1{fill:#fff;stroke:#000;stroke-width:0.25px;}.cls-1,.cls-10,.cls-2,.cls-3,.cls-4,.cls-5{stroke-miterlimit:10;}.cls-2{stroke:#a7dce8;stroke-width:3px;fill:url(#Безымянный_градиент_58);}.cls-3,.cls-4,.cls-5{stroke:#e5bc8f;}.cls-3{fill:url(#Безымянный_градиент_71);}.cls-4{fill:url(#Безымянный_градиент_71-2);}.cls-5{fill:url(#Безымянный_градиент_71-3);}.cls-6{opacity:0.77;}.cls-7{fill:#fffffd;}.cls-8{opacity:0.8;}.cls-9{fill:#e29881;}.cls-10{fill:none;stroke:#e29881;}.cls-11{fill:#e5c8c1;}</style><linearGradient id="Безымянный_градиент_58" x1="40.13" y1="25.27" x2="20.43" y2="59.39" gradientUnits="userSpaceOnUse"><stop offset="0.51" stop-color="#8fc6e5"/><stop offset="0.62" stop-color="#78b8d9"/><stop offset="0.76" stop-color="#5ea9cc"/><stop offset="0.89" stop-color="#4ea0c4"/><stop offset="0.99" stop-color="#499dc1"/></linearGradient><linearGradient id="Безымянный_градиент_71" x1="38.87" y1="21.56" x2="23.84" y2="47.6" gradientUnits="userSpaceOnUse"><stop offset="0.36" stop-color="#efe5ca"/><stop offset="0.97" stop-color="#c9a55d"/><stop offset="1" stop-color="#d3b679"/></linearGradient><linearGradient id="Безымянный_градиент_71-2" x1="39.2" y1="13.15" x2="27.39" y2="33.61" xlink:href="#Безымянный_градиент_71"/><linearGradient id="Безымянный_градиент_71-3" x1="38.74" y1="5.04" x2="30.26" y2="19.72" xlink:href="#Безымянный_градиент_71"/></defs><g id="Слой_2" data-name="Слой 2"><path class="cls-1" d="M7,37.31" transform="translate(-2.7 -2.86)"/><path class="cls-2" d="M4.91,41.31l1.77,2.25,6.14,7.8,0,2.09c.22,7.73,38.64,7.73,38.64,0v-2.2L59,41.66C69.16,27-3.7,28.06,4.91,41.31Z" transform="translate(-2.7 -2.86)"/><path class="cls-3" d="M58.5,35.5c.48,3.35-11.65,9-25,9s-26.18-4.71-27-8c-2-8,4-21,22-14C48.27,30.19,57.5,28.5,58.5,35.5Z" transform="translate(-2.7 -2.86)"/><path class="cls-4" d="M53.5,29.5c-.63,2.67,2.16-2.1-23,0-12,1-16.91-3.15-18-7-2-7,6-14,16-6C31.27,18.77,57.5,12.5,53.5,29.5Z" transform="translate(-2.7 -2.86)"/><path class="cls-5" d="M45.5,16.5c0,1.94-.52,1-9,1-7.82,0-15-1.09-15-4,0-12,22-13,15.64-4.89C34.42,12.08,45.5,5.5,45.5,16.5Z" transform="translate(-2.7 -2.86)"/><g class="cls-6"><path class="cls-7" d="M44.5,23h1.13l.64,0,.33,0,.22,0-.19,0a1.78,1.78,0,0,1,.64.13l.3.1c.31.1-.25-.12,0,0a8.86,8.86,0,0,0,.85.34c.32.11-.21-.13.05,0a1,1,0,0,1,.17.1l-.14-.11a3.64,3.64,0,0,1,.34.34s.25.27.08.08,0,.06.07.11a7.7,7.7,0,0,1,.57,1l.12.26c.07.14-.12-.32,0,0l.18.51.12.47c0,.06.06.34,0,0s0,0,0,.05a1.5,1.5,0,0,0,3,0,7,7,0,0,0-.76-2.71,6.75,6.75,0,0,0-1.59-2.28,5.24,5.24,0,0,0-1.72-.9c-.31-.11.26.12,0,0a5.18,5.18,0,0,0-.65-.26,4,4,0,0,0-.68-.17A17.74,17.74,0,0,0,44.5,20a1.5,1.5,0,0,0,0,3Z" transform="translate(-2.7 -2.86)"/></g><g class="cls-6"><path class="cls-7" d="M39.31,13.41l.31-.05-.4.06a4.51,4.51,0,0,1,1.16,0L40,13.35a3.74,3.74,0,0,1,.73.19l-.36-.15a2.84,2.84,0,0,1,.56.33l-.3-.23a3.33,3.33,0,0,1,.46.46l-.24-.3a3.59,3.59,0,0,1,.48.83l-.15-.36a7,7,0,0,1,.38,1.28,1.59,1.59,0,0,0,.69.9,1.61,1.61,0,0,0,1.16.15,1.55,1.55,0,0,0,1.05-1.85,7.72,7.72,0,0,0-.36-1.22,6.12,6.12,0,0,0-.89-1.55,3.87,3.87,0,0,0-2.42-1.37,6.2,6.2,0,0,0-1.05-.09,9.91,9.91,0,0,0-1.22.15,1.47,1.47,0,0,0-.89.69,1.49,1.49,0,0,0-.15,1.15,1.46,1.46,0,0,0,.69.9,1.69,1.69,0,0,0,1.15.15Z" transform="translate(-2.7 -2.86)"/></g><g class="cls-6"><path class="cls-7" d="M52,34l.23,0-.4.06a4,4,0,0,1,1,0l-.4-.06a4.07,4.07,0,0,1,1,.28l-.36-.15a3.94,3.94,0,0,1,.91.53l-.3-.24a4.4,4.4,0,0,1,.71.72l-.23-.31a5.54,5.54,0,0,1,.58,1l-.15-.36a6.09,6.09,0,0,1,.25.83,1.5,1.5,0,0,0,1.84,1.05,1.53,1.53,0,0,0,1-1.84,5.82,5.82,0,0,0-2.29-3.49,5.44,5.44,0,0,0-4.24-.87,1.47,1.47,0,0,0-.89.69,1.49,1.49,0,0,0-.15,1.15,1.46,1.46,0,0,0,.69.9A1.64,1.64,0,0,0,52,34Z" transform="translate(-2.7 -2.86)"/></g><g class="cls-8"><path class="cls-9" d="M7.51,32.16a5.69,5.69,0,0,0,.55,3.49,6.75,6.75,0,0,0,2.26,2.46,9.74,9.74,0,0,0,2.93,1.29,28.69,28.69,0,0,1,3,.79,1.49,1.49,0,0,0,1.84-1,1.54,1.54,0,0,0-1-1.85,20.37,20.37,0,0,0-2.66-.69,12.53,12.53,0,0,1-1.23-.38s-.37-.14-.18-.06l-.18-.08-.57-.3a6.06,6.06,0,0,1-.53-.35c-.12-.08-.11-.09,0,0l-.29-.25c-.15-.14-.28-.3-.42-.45.09.09.1.15,0,0s-.11-.17-.17-.26l-.15-.26-.08-.15c.09.18,0-.12-.06-.16l-.09-.29c0-.07-.08-.22-.06-.29l0,.16c0-.06,0-.12,0-.18s0-.2,0-.3.05-.45,0-.08a1.5,1.5,0,0,0-2.89-.8Z" transform="translate(-2.7 -2.86)"/></g></g><g id="Слой_3" data-name="Слой 3"><path class="cls-10" d="M59.7,37.69" transform="translate(-2.7 -2.86)"/><path class="cls-11" d="M58.17,39c-1.15.83-2.28,1.69-3.47,2.46a14.09,14.09,0,0,1-1.7.94l-.23.1-.48.19c-.32.12-.64.22-1,.32a1.5,1.5,0,1,0,.8,2.89,15.45,15.45,0,0,0,4-1.78c1.23-.78,2.4-1.68,3.58-2.53A1.5,1.5,0,0,0,58.17,39Z" transform="translate(-2.7 -2.86)"/><path class="cls-11" d="M40.55,45.25c-.4.1-.81.21-1.22.27l.39-.06a3.48,3.48,0,0,1-.72,0,1.15,1.15,0,0,0-.58.13,1.36,1.36,0,0,0-.79.79,1.15,1.15,0,0,0-.13.58,1.5,1.5,0,0,0,.44,1.06A1.61,1.61,0,0,0,39,48.5a8.92,8.92,0,0,0,2.35-.36,1.14,1.14,0,0,0,.51-.27,1.31,1.31,0,0,0,.39-.42,1,1,0,0,0,.17-.56,1.11,1.11,0,0,0,0-.6,1.5,1.5,0,0,0-.69-.89,1.61,1.61,0,0,0-1.16-.15Z" transform="translate(-2.7 -2.86)"/></g></svg>