<svg xmlns="http://www.w3.org/2000/svg" viewBox="0 0 42.03 57"><defs><style>.cls-1{fill:#83a6e5;}.cls-2{fill:#345cea;}.cls-3{fill:#5272cc;}.cls-4{fill:#d844a3;}.cls-5{fill:#fff8e9;}.cls-6{fill:#f2ebbd;}.cls-7{fill:#e2e1d7;}.cls-8{fill:#fbfcd6;opacity:0.31;}.cls-10,.cls-9{fill:none;stroke-miterlimit:10;}.cls-9{stroke:#e2c9a6;}.cls-10{stroke:#fff8e9;}</style></defs><g id="Слой_2" data-name="Слой 2"><rect class="cls-1" y="3" width="42" height="54" rx="3.38"/><rect class="cls-2" x="3" width="13" height="3" rx="0.45"/><path class="cls-3" d="M19,5V59H14.38A3.38,3.38,0,0,1,11,55.62V8.38A3.38,3.38,0,0,1,14.38,5Z" transform="translate(-11 -2)"/></g><g id="Слой_3" data-name="Слой 3"><path class="cls-4" d="M53,48v6.87C53,57.15,51.49,59,49.62,59H14.38C12.51,59,11,57.15,11,54.87V48Z" transform="translate(-11 -2)"/></g><g id="Слой_4" data-name="Слой 4"><path class="cls-5" d="M53,48H11c0-1.47,1.33-2.76,3.46-3.88a30,30,0,0,1,4.74-1.89C28.39,39.31,42.27,38,44,38a12,12,0,0,1,1.86.13C53.87,39.29,53,48,53,48Z" transform="translate(-11 -2)"/><path class="cls-5" d="M45.86,38.13C44.48,41.57,37.07,40.72,31.5,45c-4.84,3.72-12.48,2.37-15.83.17a5.37,5.37,0,0,1-1.21-1.05A1.8,1.8,0,0,1,14,43c0-4.52,2.55-5.53,6.21-6.45l1.91-.47A26,26,0,0,0,30,33c2.27-1.42,6.47-1.9,10-1.26,3,.55,5.61,1.93,6,4.26A4.06,4.06,0,0,1,45.86,38.13Z" transform="translate(-11 -2)"/><path class="cls-5" d="M40,33c-.35,2.46-5.1.39-8,2-6.84,3.8-10.21,3-11.44,1.92a2,2,0,0,1-.35-.37A1,1,0,0,1,20,36a8.26,8.26,0,0,1,3.2-6.08C28,25.67,36.13,23.94,34,25c-7.47,3.74,5.12,1.37,6,6.74A4.09,4.09,0,0,1,40,33Z" transform="translate(-11 -2)"/><path class="cls-6" d="M30.79,5C30,8.18,26.28,18,11,19.72V8.38A3.38,3.38,0,0,1,14.38,5Z" transform="translate(-11 -2)"/><path class="cls-7" d="M24.55,35.13a21.61,21.61,0,0,0-2.43.95,13.11,13.11,0,0,0-1.56.84c-2,1.24-3.4,3-1.36,5.31A7.44,7.44,0,0,0,20,43a30,30,0,0,0-4.33,2.17c-1.43.91-2.53,2-2,2.83H11c0-1.47,1.33-2.76,3.46-3.88A1.8,1.8,0,0,1,14,43c0-4.52,2.55-5.53,6.21-6.45A1,1,0,0,1,20,36a8.26,8.26,0,0,1,3.2-6.08C22.14,32.72,21.53,35.88,24.55,35.13Z" transform="translate(-11 -2)"/></g><g id="Слой_5" data-name="Слой 5"><circle class="cls-4" cx="32.5" cy="11.5" r="4.5"/></g><g id="Слой_6" data-name="Слой 6"><path class="cls-8" d="M53,8.38V55L41,5h8.62A3.38,3.38,0,0,1,53,8.38Z" transform="translate(-11 -2)"/></g><g id="Слой_7" data-name="Слой 7"><path class="cls-9" d="M40,32s.5,3.5-7.5,2.5" transform="translate(-11 -2)"/><path class="cls-9" d="M45.81,38.25S47.5,45.5,34.5,43.5a77.38,77.38,0,0,0-8.19-.85" transform="translate(-11 -2)"/></g><g id="Слой_8" data-name="Слой 8"><line class="cls-10" x1="19.5" y1="39.5" x2="19.5" y2="42.5"/><line class="cls-10" x1="27.5" y1="40.5" x2="27.5" y2="43.5"/><line class="cls-10" x1="30.5" y1="40.5" x2="31.5" y2="42.5"/><line class="cls-10" x1="23.5" y1="31.5" x2="23.5" y2="34.5"/></g></svg>