<svg xmlns="http://www.w3.org/2000/svg" viewBox="0 0 43.56 57"><defs><style>.cls-1{fill:#b8bca6;}.cls-2{fill:#99926a;}.cls-3{fill:#bcaf77;stroke:#b8bca6;stroke-miterlimit:10;stroke-width:2px;}.cls-4{fill:#d1cfc3;}</style></defs><g id="Слой_2" data-name="Слой 2"><path class="cls-1" d="M32,59c-4.66,0-11.8-2.73-16.48-8.71-3-3.79-6-10.35-3.55-20C16,14.06,23.69,4,32,4c8.16,0,16.58,11.86,20,28.21,1.53,7.24.2,13.71-3.84,18.69A22.14,22.14,0,0,1,32,59Z" transform="translate(-10.08 -3)"/><path class="cls-2" d="M32,5c7.69,0,15.7,11.53,19,27.41,1.46,6.94.2,13.12-3.64,17.86A21.08,21.08,0,0,1,32,58c-4.42,0-11.22-2.61-15.69-8.33-4-5.18-5.21-11.82-3.37-19.18C16.81,15,24.29,5,32,5m0-2C22.61,3,14.88,14.46,11,30,6,50,22.61,60,32,60s25-9,21-28C49.7,16.33,41.39,3,32,3Z" transform="translate(-10.08 -3)"/><path class="cls-3" d="M29.11,55a16,16,0,0,1-11.84-6.16c-2.11-2.7-4.28-7.34-2.6-14.07Z" transform="translate(-10.08 -3)"/></g><g id="Слой_3" data-name="Слой 3"><circle class="cls-1" cx="25.92" cy="8" r="1"/><path class="cls-4" d="M36,10A1,1,0,0,0,35.7,12,.79.79,0,0,0,36,12a1,1,0,0,0,.3-1.95A.79.79,0,0,0,36,10Z" transform="translate(-10.08 -3)"/><circle class="cls-1" cx="32.92" cy="27" r="1"/><path class="cls-4" d="M43,29a1,1,0,1,0,1,1,1,1,0,0,0-1-1Z" transform="translate(-10.08 -3)"/><circle class="cls-1" cx="25.92" cy="36" r="1"/><path class="cls-4" d="M36,38a1,1,0,1,0,1,1,1,1,0,0,0-1-1Z" transform="translate(-10.08 -3)"/><circle class="cls-1" cx="23.92" cy="18" r="1"/><path class="cls-4" d="M34,20a1,1,0,1,0,1,1,1,1,0,0,0-1-1Z" transform="translate(-10.08 -3)"/><path class="cls-1" d="M44.37,39.49a1,1,0,0,1,.13-2h.13a1,1,0,0,1-.13,2Z" transform="translate(-10.08 -3)"/><path class="cls-4" d="M44.5,36a2.5,2.5,0,0,0-.32,5l.32,0a2.5,2.5,0,0,0,.32-5l-.32,0Z" transform="translate(-10.08 -3)"/><circle class="cls-1" cx="22.92" cy="43" r="1.5"/><path class="cls-4" d="M33,43a3,3,0,1,0,3,3,3,3,0,0,0-3-3Z" transform="translate(-10.08 -3)"/><path class="cls-1" d="M38.5,17.5a1,1,0,0,1-.93-.62,1,1,0,0,1,0-.77,1,1,0,0,1,.54-.54,1,1,0,0,1,.38-.07,1,1,0,0,1,.93.62,1,1,0,0,1,0,.77,1,1,0,0,1-.54.54A1,1,0,0,1,38.5,17.5Z" transform="translate(-10.08 -3)"/><path class="cls-4" d="M38.5,14a2.44,2.44,0,0,0-1,.19,2.5,2.5,0,0,0,1,4.81,2.44,2.44,0,0,0,1-.19,2.5,2.5,0,0,0-1-4.81Z" transform="translate(-10.08 -3)"/><circle class="cls-1" cx="30.92" cy="22" r="0.5"/><path class="cls-4" d="M41,23a2,2,0,1,0,2,2,2,2,0,0,0-2-2Z" transform="translate(-10.08 -3)"/><circle class="cls-1" cx="27.92" cy="29" r="0.5"/><path class="cls-4" d="M38,30a2,2,0,1,0,2,2,2,2,0,0,0-2-2Z" transform="translate(-10.08 -3)"/></g></svg>