<svg xmlns="http://www.w3.org/2000/svg" xmlns:xlink="http://www.w3.org/1999/xlink" viewBox="0 0 54.03 56.99"><defs><style>.cls-1{fill:url(#Безымянный_градиент_21);}.cls-2{fill:url(#Безымянный_градиент_33);}.cls-3,.cls-6{fill:#33a3e2;}.cls-4{fill:#093fc6;}.cls-5{fill:#eaeaea;}.cls-6{stroke:#e5e5e5;stroke-miterlimit:10;}.cls-7{fill:#d7f3ff;opacity:0.53;}.cls-8{fill:#0048d8;opacity:0.23;}.cls-9{opacity:0.87;}.cls-10{fill:#eefbff;}</style><linearGradient id="Безымянный_градиент_21" x1="5" y1="31.5" x2="59.03" y2="31.5" gradientUnits="userSpaceOnUse"><stop offset="0" stop-color="#848484"/><stop offset="0.54" stop-color="#fbfbfb"/><stop offset="1" stop-color="#727272"/></linearGradient><linearGradient id="Безымянный_градиент_33" x1="5" y1="9.5" x2="59" y2="9.5" gradientUnits="userSpaceOnUse"><stop offset="0" stop-color="#bcbcbc"/><stop offset="0.5" stop-color="#fbfbfb"/><stop offset="1" stop-color="#727272"/></linearGradient></defs><g id="Слой_2" data-name="Слой 2"><path class="cls-1" d="M59,11V52c0,5-13,8-27,8-3.33,0-6.24-.12-8.8-.33C5,58.15,5,52,5,52V11C5,7,8,3,32,3,61,3,59,11,59,11Z" transform="translate(-5 -3)"/></g><g id="Слой_3" data-name="Слой 3"><path class="cls-2" d="M59,10c0,2.49-12.36,6-27,6S5,12.49,5,10,8,3,32,3C53,3,59,7.51,59,10Z" transform="translate(-5 -3)"/></g><g id="Слой_4" data-name="Слой 4"><path class="cls-3" d="M59,13V49.61a20.22,20.22,0,0,1-3,2.52C49.75,56.48,40.73,58.06,32,58h-.07A68,68,0,0,1,21.63,57C12.77,55.58,5.82,52.57,5,49.47V13.25c17.79,8.67,41.16,6.16,51,1.54A14.84,14.84,0,0,0,59,13Z" transform="translate(-5 -3)"/></g><g id="Слой_5" data-name="Слой 5"><polygon class="cls-4" points="54 13.49 54 30.09 27.01 54.95 27 54.96 27 55 26.94 54.95 7.38 38.64 0 32.48 0 13.49 27 36 54 13.49"/><path class="cls-3" d="M32,19" transform="translate(-5 -3)"/><path class="cls-5" d="M5,39.46,21,55S6,51.55,5,46.87Z" transform="translate(-5 -3)"/><path class="cls-5" d="M59,39.43,43,55s15-3.47,16-8.16Z" transform="translate(-5 -3)"/><polygon class="cls-6" points="15 34 40 34 45.5 25.5 40 18 15 18 9.5 25.5 15 34"/></g><g id="Слой_6" data-name="Слой 6"><path class="cls-7" d="M59,13V49.61a20.22,20.22,0,0,1-3,2.52L49,17C51,17,56,15,59,13Z" transform="translate(-5 -3)"/><path class="cls-8" d="M23.2,59.66C5,58.15,5,52,5,52V11L15,41l7,16Z" transform="translate(-5 -3)"/><g class="cls-9"><path class="cls-10" d="M56.38,16.5c0,1-.07,2.06-.1,3.09s0,1.94.1,2.91a1.13,1.13,0,1,0,2.25,0c-.05-1-.13-1.94-.1-2.91s.08-2.06.1-3.09a1.13,1.13,0,0,0-2.25,0Z" transform="translate(-5 -3)"/></g><g class="cls-9"><path class="cls-10" d="M56,29.51l.11,1.79a1.16,1.16,0,0,0,.33.79,1.07,1.07,0,0,0,.79.33,1.14,1.14,0,0,0,.8-.33,1.11,1.11,0,0,0,.33-.79l-.11-1.79a1.16,1.16,0,0,0-.33-.79,1.07,1.07,0,0,0-.79-.33,1.14,1.14,0,0,0-.8.33,1.11,1.11,0,0,0-.33.79Z" transform="translate(-5 -3)"/></g><g class="cls-9"><path class="cls-10" d="M57.34,36.93a1.13,1.13,0,0,0,0-2.25,1.13,1.13,0,0,0,0,2.25Z" transform="translate(-5 -3)"/></g></g></svg>