<svg xmlns="http://www.w3.org/2000/svg" xmlns:xlink="http://www.w3.org/1999/xlink" viewBox="0 0 39 60.64"><defs><style>.cls-1{stroke:#ff9;fill:url(#Безымянный_градиент_26);}.cls-1,.cls-10,.cls-2,.cls-3,.cls-4,.cls-7{stroke-miterlimit:10;}.cls-1,.cls-2,.cls-3,.cls-4,.cls-7{stroke-width:3px;}.cls-2{fill:#4646b2;stroke:#4a4aa3;}.cls-3{fill:#502bd8;stroke:#5f63aa;}.cls-4{fill:url(#Безымянный_градиент_75);stroke:url(#Безымянный_градиент_87);}.cls-5{fill:#f2f1dd;}.cls-6{fill:#ffd01c;}.cls-10,.cls-7{fill:#ffba3b;stroke:#fb0;}.cls-8{fill:#ffb64f;}.cls-9{font-size:12px;fill:#fcd888;font-family:MyriadPro-Regular, Myriad Pro;}.cls-10{stroke-width:0.75px;}</style><linearGradient id="Безымянный_градиент_26" x1="52.25" y1="17.25" x2="14.1" y2="55.4" gradientUnits="userSpaceOnUse"><stop offset="0.61" stop-color="#f7e941"/><stop offset="0.99" stop-color="#d8b04e"/></linearGradient><linearGradient id="Безымянный_градиент_75" x1="24.27" y1="0.23" x2="15.73" y2="8.77" gradientUnits="userSpaceOnUse"><stop offset="0.32" stop-color="#8396e2"/><stop offset="1" stop-color="#4057b5"/></linearGradient><linearGradient id="Безымянный_градиент_87" x1="25.33" y1="-0.83" x2="14.67" y2="9.83" gradientUnits="userSpaceOnUse"><stop offset="0.39" stop-color="#8598e5"/><stop offset="0.86" stop-color="#4057b5"/></linearGradient></defs><g id="кленовый_сироп_совсем_не_вкусный"><path class="cls-1" d="M26,6V9S15,14,15,24V53.57c0,2.43.67,3.9,2,4.43,5,2,24.76,3.63,31.79-.06A4.26,4.26,0,0,0,51,54.17V24C51,15,41,9,41,9V6" transform="translate(-13.5 -1)"/><path class="cls-2" d="M41,5.8,41,9c0,1.66-3.36,3-7.5,3S26,10.66,26,9V5.8" transform="translate(-13.5 -1)"/><path class="cls-3" d="M41,6c0-1.66-3.36-3-7.5-3S26,4.34,26,6" transform="translate(-13.5 -1)"/><ellipse class="cls-4" cx="20" cy="4.5" rx="8" ry="3"/><path class="cls-5" d="M45.42,14.3l-.06.29c0,.08-.07.19,0,.05,0,.09-.09.17-.14.26s-.13.18,0,.06a6.21,6.21,0,0,1-.85.85L44.1,16c.12-.09,0,0-.06,0s-.33.23-.5.33A10.42,10.42,0,0,1,42.4,17l-.16.08-.17.07-.6.22c-.44.15-.89.28-1.34.4-.93.24-1.87.43-2.81.61a1.52,1.52,0,0,0-1,1.85,1.54,1.54,0,0,0,1.85,1,23.34,23.34,0,0,0,6.07-1.81c1.68-.83,3.81-2.35,4.12-4.35a1.54,1.54,0,0,0-1.05-1.84,1.52,1.52,0,0,0-1.84,1.05Z" transform="translate(-13.5 -1)"/><path class="cls-5" d="M48,20.59c0-.06,0-.33,0-.12s0,0,0-.11a2.53,2.53,0,0,0-.2.36c-.1.15.19-.23.07-.1l-.12.14-.26.27c-.08.07-.28.18-.31.27s.26-.19.08-.07l-.15.1a4.4,4.4,0,0,1-.66.39l-.33.16c-.17.08.29-.12.11-.05l-.18.07c-.28.1-.55.19-.83.27-.56.15-1.13.27-1.7.38a1.53,1.53,0,0,0-1.05,1.85,1.55,1.55,0,0,0,1.85,1.05,12.91,12.91,0,0,0,3.88-1.27A6.57,6.57,0,0,0,49.88,23a4.46,4.46,0,0,0,.71-.91A3.65,3.65,0,0,0,51,20.59a1.52,1.52,0,0,0-.44-1.06,1.56,1.56,0,0,0-1.06-.44,1.54,1.54,0,0,0-1.06.44A1.76,1.76,0,0,0,48,20.59Z" transform="translate(-13.5 -1)"/><path class="cls-6" d="M17,31.5a7.35,7.35,0,0,1,.74-1.8A6.06,6.06,0,0,0,18,27.46,30.73,30.73,0,0,1,18,22.57a11.25,11.25,0,0,1,1.55-4.09,13.83,13.83,0,0,1,2-2.92c1.35-1.39-.77-3.51-2.12-2.12a16.59,16.59,0,0,0-4.33,8.08,24.38,24.38,0,0,0-.11,5.4,4.5,4.5,0,0,1-.15,2A8.08,8.08,0,0,0,14,31.5c-.13,1.93,2.87,1.92,3,0Z" transform="translate(-13.5 -1)"/><path class="cls-6" d="M18,56.5c0-5.67,0-11.33,0-17a1.5,1.5,0,0,0-3,0c0,5.67,0,11.33,0,17a1.5,1.5,0,0,0,3,0Z" transform="translate(-13.5 -1)"/><path class="cls-5" d="M31.32,18.53h0l.4-.05a3,3,0,0,1-.6,0l.4.05-.31-.06a1,1,0,0,0-.6,0,1.09,1.09,0,0,0-.55.18,1.54,1.54,0,0,0-.69.89l-.06.4a1.48,1.48,0,0,0,.21.76l.23.3a1.49,1.49,0,0,0,.66.39l.24.05a4.52,4.52,0,0,0,.63.08,4.26,4.26,0,0,0,.87-.07,1.14,1.14,0,0,0,.51-.27,1.31,1.31,0,0,0,.39-.42,1.12,1.12,0,0,0,.18-.56,1.22,1.22,0,0,0,0-.6L33,19.21a1.61,1.61,0,0,0-.54-.53l-.36-.15a1.36,1.36,0,0,0-.8,0Z" transform="translate(-13.5 -1)"/><path class="cls-5" d="M40.06,26.5a1.5,1.5,0,0,0,0-3,1.5,1.5,0,0,0,0,3Z" transform="translate(-13.5 -1)"/><path class="cls-5" d="M48.67,54.84a9.07,9.07,0,0,1-1.24.64l.36-.15a9.37,9.37,0,0,1-2,.59,1.5,1.5,0,0,0-1,1.85,1.5,1.5,0,0,0,.69.89,1.7,1.7,0,0,0,1.15.16,10.66,10.66,0,0,0,3.61-1.39,1.54,1.54,0,0,0,.69-.89,1.51,1.51,0,0,0-2.21-1.7Z" transform="translate(-13.5 -1)"/></g><g id="Слой_3" data-name="Слой 3"><path class="cls-7" d="M15,29c1.17.43,2.33.81,3.47,1.15A57.89,57.89,0,0,0,51,30V45.49a50.42,50.42,0,0,1-36,0V29" transform="translate(-13.5 -1)"/><polygon class="cls-8" points="2.5 26.71 0 25 0 28.43 2.5 29 2.5 26.71"/></g><g id="Слой_4" data-name="Слой 4"><path class="cls-5" d="M49.24,42.47V55.66a1.13,1.13,0,0,0,2.25,0V42.47a1.13,1.13,0,0,0-2.25,0Z" transform="translate(-13.5 -1)"/><text class="cls-9" transform="translate(10.8 43.24)">OIL</text><line class="cls-10" x1="19.5" y1="36.5" x2="21.5" y2="36.5"/></g></svg>