<svg xmlns="http://www.w3.org/2000/svg" xmlns:xlink="http://www.w3.org/1999/xlink" viewBox="0 0 43 58"><defs><style>.cls-1,.cls-3{stroke:#c6b195;}.cls-1,.cls-2,.cls-3,.cls-8{stroke-miterlimit:10;}.cls-1{fill:url(#Безымянный_градиент_12);}.cls-2{fill:#fbffd7;stroke:#ced67b;}.cls-3{fill:#fff799;}.cls-4{opacity:0.94;}.cls-5{fill:#f29777;}.cls-6{fill:#fffdf3;}.cls-7{fill:#f2ff97;opacity:0.55;}.cls-8{fill:none;stroke:#895a33;stroke-width:2px;}.cls-9{fill:#ffd939;}.cls-10{fill:#ed9f58;}.cls-11{fill:#d3a062;}.cls-12{opacity:0.69;}.cls-13{fill:#fff5ca;}.cls-14{fill:#fff;opacity:0.78;}</style><linearGradient id="Безымянный_градиент_12" x1="53.57" y1="17.67" x2="12.1" y2="59.14" gradientUnits="userSpaceOnUse"><stop offset="0.43" stop-color="#fff0b0"/><stop offset="1" stop-color="#e89856"/></linearGradient></defs><g id="Слой_3" data-name="Слой 3"><path class="cls-1" d="M54,33.14V57.65a3.34,3.34,0,0,1-2.5,3.24,3.41,3.41,0,0,1-.85.11H15.35A3.35,3.35,0,0,1,12,57.65V33a3.37,3.37,0,0,1,2.8-3.3C18.06,29.13,23,27.36,23,22V9s0-2.82,1.78-4.32a3.13,3.13,0,0,1,2-.68H39s3,0,3,5V22s0,6.67,9.13,7.83l.37.07A3.33,3.33,0,0,1,54,33.14Z" transform="translate(-11.5 -3.5)"/><path class="cls-2" d="M42,9v7H23V9s0-2.82,1.78-4.32a3.13,3.13,0,0,1,2-.68H39S42,4,42,9Z" transform="translate(-11.5 -3.5)"/><rect class="cls-3" x="0.5" y="31.5" width="42" height="21"/><g class="cls-4"><path class="cls-5" d="M13.05,49.26c0,2.8.4,5.62.32,8.42a2.62,2.62,0,0,0,.19,1.44c.43.79,1.28.86,2.08,1a22.87,22.87,0,0,0,5,.22,1.16,1.16,0,0,0,1.12-1.13,1.13,1.13,0,0,0-1.12-1.12,20.61,20.61,0,0,1-2.94,0,10.42,10.42,0,0,1-2.73-.4l.5.29c.16.13.07.66.1.28,0-.13,0-.26,0-.39s0-.25,0-.37c0-.94,0-1.89-.07-2.83-.09-1.81-.22-3.61-.25-5.41a1.13,1.13,0,0,0-2.25,0Z" transform="translate(-11.5 -3.5)"/></g><g class="cls-4"><path class="cls-5" d="M13.19,32.85v4a1.13,1.13,0,1,0,2.25,0v-4a1.14,1.14,0,0,0-1.13-1.12,1.12,1.12,0,0,0-1.12,1.12Z" transform="translate(-11.5 -3.5)"/></g><g class="cls-4"><path class="cls-5" d="M17.21,32.32a1.13,1.13,0,0,0,0-2.25,1.13,1.13,0,0,0,0,2.25Z" transform="translate(-11.5 -3.5)"/></g><g class="cls-4"><path class="cls-6" d="M38.6,18.11,38.66,22a1.13,1.13,0,1,0,2.25,0l-.06-3.89a1.13,1.13,0,1,0-2.25,0Z" transform="translate(-11.5 -3.5)"/></g><g class="cls-4"><path class="cls-6" d="M40.45,26.51a1.13,1.13,0,0,0,0-2.25,1.13,1.13,0,0,0,0,2.25Z" transform="translate(-11.5 -3.5)"/></g><g class="cls-4"><path class="cls-6" d="M42.3,28.68a1.13,1.13,0,0,0,0-2.25,1.13,1.13,0,0,0,0,2.25Z" transform="translate(-11.5 -3.5)"/></g><path class="cls-7" d="M42,9v7H38.5V4H39S42,4,42,9Z" transform="translate(-11.5 -3.5)"/></g><g id="Слой_4" data-name="Слой 4"><path class="cls-8" d="M19.39,51.36,45,42.83l1.2-.38a2.07,2.07,0,0,0,1.27-1c1.38-2.71-1.22-4.25-4.62-3.19" transform="translate(-11.5 -3.5)"/><line class="cls-8" x1="34.08" y1="41.47" x2="5.79" y2="50.91"/><path class="cls-9" d="M29.71,42.55a9.91,9.91,0,0,1,2.46,1.78c1.18,1,1.6,1.85,1.16,2.78s-1.39,1.2-3,1.07a10.7,10.7,0,0,1-3.08-.5,7.4,7.4,0,0,1-2.46-1.78c-1.08-1.21-1.92-2.1-2.16-2.42s-1.07-1.22.62-1.29l3.38-.14A6.06,6.06,0,0,1,29.71,42.55Z" transform="translate(-11.5 -3.5)"/><path class="cls-9" d="M28.42,47.86a10.5,10.5,0,0,1,2.8-1.29c1.5-.54,2.49-.53,3.2.24s.57,1.67-.25,3a9.53,9.53,0,0,1-1.82,2.36,7.8,7.8,0,0,1-2.79,1.29c-1.65.37-2.88.69-3.29.75s-1.65.38-1-1.07l1.32-2.89A5.41,5.41,0,0,1,28.42,47.86Z" transform="translate(-11.5 -3.5)"/><path class="cls-9" d="M34.28,52a9.22,9.22,0,0,1-1.71-2.43c-.75-1.32-.86-2.23-.12-3s1.73-.71,3.22-.11a10.88,10.88,0,0,1,2.73,1.4,7.07,7.07,0,0,1,1.71,2.43c.59,1.47,1.07,2.56,1.19,2.94s.59,1.47-1,1L37,53.43A5.89,5.89,0,0,1,34.28,52Z" transform="translate(-11.5 -3.5)"/><path class="cls-9" d="M38.51,47.67a10.72,10.72,0,0,1-3.06.56c-1.61.16-2.56-.08-3-1s-.07-1.76,1.09-2.81a10,10,0,0,1,2.42-1.83A8,8,0,0,1,39,42c1.7,0,3,0,3.39.07s1.69,0,.65,1.27l-2.1,2.47A5.7,5.7,0,0,1,38.51,47.67Z" transform="translate(-11.5 -3.5)"/><path class="cls-9" d="M35.88,42.72a8.88,8.88,0,0,1-.76,2.81c-.53,1.41-1.18,2.11-2.27,2.11S31.1,47,30.57,45.53a9.15,9.15,0,0,1-.75-2.81,6.75,6.75,0,0,1,.75-2.81c.76-1.4,1.3-2.48,1.52-2.81s.76-1.4,1.51,0l1.52,2.81A5,5,0,0,1,35.88,42.72Z" transform="translate(-11.5 -3.5)"/><path class="cls-10" d="M33.38,45.31a4.91,4.91,0,0,1,1.1,1.08c.51.6-.41.5-.69,1s.29,1.09-.51.92a5.2,5.2,0,0,1-1.49-.46,3.62,3.62,0,0,1-1.09-1.08c-.45-.69-.81-1.2-.9-1.39s-.45-.69.4-.62l1.69.14A3,3,0,0,1,33.38,45.31Z" transform="translate(-11.5 -3.5)"/><path class="cls-10" d="M31.34,45.57a5.32,5.32,0,0,1,1.29-.85c.71-.38.55.57,1,.92s1.06-.18.75.54a5.06,5.06,0,0,1-.73,1.34,3.8,3.8,0,0,1-1.29.85c-.79.3-1.38.55-1.58.61s-.79.3-.57-.49l.45-1.58A2.75,2.75,0,0,1,31.34,45.57Z" transform="translate(-11.5 -3.5)"/><path class="cls-10" d="M32,47.68a4.83,4.83,0,0,1-.86-1.27c-.37-.69.28-.64.65-1s.16-.9.91-.58a5,5,0,0,1,1.37.72,3.83,3.83,0,0,1,.85,1.27c.3.77.54,1.34.6,1.53s.3.77-.52.54l-1.63-.46A2.92,2.92,0,0,1,32,47.68Z" transform="translate(-11.5 -3.5)"/><path class="cls-10" d="M33.77,47.8a5.08,5.08,0,0,1-1.48.47c-.79.18-.24-1-.53-1.42s-1.2.18-.69-.43a4.68,4.68,0,0,1,1.08-1.1,3.91,3.91,0,0,1,1.49-.47c.84-.08,1.47-.16,1.69-.17s.84-.08.4.62l-.88,1.4A2.84,2.84,0,0,1,33.77,47.8Z" transform="translate(-11.5 -3.5)"/><path class="cls-10" d="M34.29,46.24a4.67,4.67,0,0,1-.38,1.46c-.26.74-.59.13-1.14.13s-.87.61-1.14-.13a4.67,4.67,0,0,1-.38-1.46,3.5,3.5,0,0,1,.38-1.46c.38-.74.65-1.29.76-1.47s.38-.73.76,0l.76,1.47A2.66,2.66,0,0,1,34.29,46.24Z" transform="translate(-11.5 -3.5)"/><ellipse class="cls-11" cx="21.35" cy="43.2" rx="2.02" ry="1.87"/><g class="cls-12"><path class="cls-13" d="M39.7,44.35a1.13,1.13,0,0,0,0-2.25,1.13,1.13,0,0,0,0,2.25Z" transform="translate(-11.5 -3.5)"/></g><g class="cls-12"><path class="cls-13" d="M37.64,44.92a1.13,1.13,0,0,0,0-2.25,1.13,1.13,0,0,0,0,2.25Z" transform="translate(-11.5 -3.5)"/></g><g class="cls-12"><path class="cls-13" d="M38,51.23A1.13,1.13,0,0,0,38,49a1.13,1.13,0,0,0,0,2.25Z" transform="translate(-11.5 -3.5)"/></g><g class="cls-12"><path class="cls-13" d="M34.36,42.36a1.13,1.13,0,0,0,0-2.25,1.13,1.13,0,0,0,0,2.25Z" transform="translate(-11.5 -3.5)"/></g></g><g id="Слой_5" data-name="Слой 5"><path class="cls-14" d="M54,33.14V57.65a3.34,3.34,0,0,1-2.5,3.24v-31A3.33,3.33,0,0,1,54,33.14Z" transform="translate(-11.5 -3.5)"/></g></svg>