<svg xmlns="http://www.w3.org/2000/svg" xmlns:xlink="http://www.w3.org/1999/xlink" viewBox="0 0 49.27 55"><defs><style>.cls-1{fill:#bfdef2;}.cls-2{fill:#7391cf;}.cls-3{fill:url(#Безымянный_градиент_15);}.cls-4,.cls-6{fill:#dae6ea;}.cls-5{fill:#73a8cf;}.cls-6{opacity:0.58;}</style><linearGradient id="Безымянный_градиент_15" x1="51.33" y1="15.76" x2="12.03" y2="55.06" gradientUnits="userSpaceOnUse"><stop offset="0.19" stop-color="#97e1f7"/><stop offset="0.98" stop-color="#1998bf"/></linearGradient></defs><g id="Слой_2" data-name="Слой 2"><path class="cls-1" d="M18.49,59a1.92,1.92,0,0,1-1.9-1.62l-8-49.13A1.93,1.93,0,0,1,10.45,6h43.1a1.93,1.93,0,0,1,1.9,2.25l-.24,1.49-7.8,47.64A1.92,1.92,0,0,1,45.51,59Z" transform="translate(-7.21 -5)"/><path class="cls-2" d="M53.55,7a.9.9,0,0,1,.7.32.94.94,0,0,1,.22.77l-.24,1.49L51.74,24.8,46.43,57.22a1,1,0,0,1-.92.78h-27a1,1,0,0,1-.92-.78l-8-49.13a.94.94,0,0,1,.22-.77.9.9,0,0,1,.7-.32h43.1m0-2H10.45A2.93,2.93,0,0,0,7.56,8.41l8,49.13A2.93,2.93,0,0,0,18.49,60h27a2.93,2.93,0,0,0,2.89-2.46l5.31-32.42L56.2,9.9l.24-1.49A2.93,2.93,0,0,0,53.55,5Z" transform="translate(-7.21 -5)"/></g><g id="Слой_3" data-name="Слой 3"><path class="cls-3" d="M54.42,18.85,48.09,57.54A2.93,2.93,0,0,1,45.2,60h-27a2.92,2.92,0,0,1-2.89-2.46L9,18.82c4.57-2.3,13.81-5.37,23.05.86C40.83,25.64,49.67,21.88,54.42,18.85Z" transform="translate(-7.21 -5)"/><circle class="cls-4" cx="18.29" cy="21.5" r="3.5"/><circle class="cls-4" cx="31.29" cy="28.5" r="4.5"/><circle class="cls-4" cx="21.29" cy="39.5" r="2.5"/><path class="cls-5" d="M53.24,7a.88.88,0,0,1,.7.33.9.9,0,0,1,.22.76L52.45,18.53,46.12,57.22a1,1,0,0,1-.92.78h-27a.93.93,0,0,1-.92-.78L13.87,36.51l-2.95-18L9.22,8.08a.89.89,0,0,1,.21-.75A.91.91,0,0,1,10.14,7h43.1m0-2H10.14A2.93,2.93,0,0,0,7.25,8.41L9,18.82l3,18,3.39,20.71A2.92,2.92,0,0,0,18.18,60h27a2.93,2.93,0,0,0,2.89-2.46l6.33-38.69L56.13,8.41A2.94,2.94,0,0,0,53.24,5Z" transform="translate(-7.21 -5)"/></g><g id="Слой_4" data-name="Слой 4"><polygon class="cls-6" points="48.99 4.9 46.5 20.12 22.01 0 42.46 0 48.99 4.9"/><path class="cls-6" d="M36.92,60H18.18a2.92,2.92,0,0,1-2.89-2.46L11.9,36.83Z" transform="translate(-7.21 -5)"/></g></svg>