<?xml version="1.0" ?><svg height="512px" version="1.1" viewBox="0 0 512 512" width="512px" xmlns="http://www.w3.org/2000/svg" xmlns:xlink="http://www.w3.org/1999/xlink"><title/><desc/><defs/><g fill="none" fill-rule="evenodd" id="SVG" stroke="none" stroke-width="1"><g id="Pretzel"><g id="7" transform="translate(0.000000, 37.000000)"><path d="M359.997867,325.047481 C339.610311,312.675122 318.433422,297.499595 300.748089,280.211019 C308.577422,266.807037 314.799644,252.520839 318.746311,237.345312 C333.188978,181.829774 329.135644,131.038358 307.681422,91.5947927 C322.202311,86.5007103 337.583644,85.0066358 350.639644,85.0066358 L351.748978,85.0066358 C409.6192,85.3837118 429.978311,140.493715 429.821867,187.571289 C429.658311,238.960335 407.279644,292.867964 359.997867,325.047481 M151.521422,324.98345 C104.296533,292.796817 81.9463111,238.931877 81.7827556,187.571289 C81.6263111,140.493715 101.992533,85.3837118 159.855644,85.0066358 L160.964978,85.0066358 C175.3792,85.0066358 193.249422,86.7852959 209.583644,93.1884721 C206.0992,92.0216711 203.837867,91.5947927 203.837867,91.5947927 C182.397867,131.031243 178.422756,181.844004 192.858311,237.345312 C196.854756,252.677361 203.169422,267.105852 211.119644,280.630783 C193.256533,297.698805 171.780978,312.668008 151.521422,324.98345 M245.892978,123.247827 C246.340978,124.023323 246.796089,124.791704 247.208533,125.588544 C246.796089,124.763245 246.333867,124.023323 245.892978,123.247827 M256.061867,160.557 C256.424533,166.753852 256.360533,173.31355 255.862756,180.257439 L255.869867,164.391791 C255.834311,164.797326 255.8272,165.224204 255.805867,165.636853 L255.805867,180.954674 C255.784533,181.160998 255.7632,181.367323 255.748978,181.573647 C255.471644,176.081145 255.478756,170.766509 255.805867,165.636853 C255.8912,150.020218 252.8832,137.697661 248.324978,127.886572 C252.506311,136.673153 254.952533,146.576732 255.869867,157.704029 L255.869867,164.391791 C255.962311,163.1325 255.933867,161.794947 256.061867,160.557 M429.686756,359.916333 C476.584533,314.425324 500.726756,250.905816 500.932978,187.798957 C501.260089,85.9599976 440.104533,14.4294051 352.204089,13.8602338 L350.561422,13.8602338 C309.302756,13.8602338 278.575644,23.9061058 255.898311,37.4452661 L255.898311,37.4452661 C232.950756,23.6428641 201.711644,13.4404701 159.400533,13.8602338 C71.5072,14.4294051 10.3445333,85.9599976 10.6716444,187.798957 C10.8778667,250.905816 35.0272,314.425324 81.9249778,359.916333 C67.8805333,368.77406 61.5445333,386.567775 67.6885333,402.675321 C73.0929778,416.861913 86.5898667,425.584462 100.911644,425.584462 C105.121422,425.584462 109.409422,424.83031 113.576533,423.243746 C115.6032,422.46825 130.685867,416.612901 151.912533,405.898253 C181.921422,418.427134 216.588089,425.577347 255.805867,425.577347 L255.805867,354.430946 C248.5312,354.430946 241.519644,354.110787 234.728533,353.484698 C241.903644,347.750298 248.972089,341.667281 255.805867,335.25699 L255.805867,354.430946 L255.820089,354.430946 L255.8272,335.278334 C255.820089,335.271219 255.812978,335.264105 255.805867,335.25699 C255.812978,335.249876 255.820089,335.242761 255.8272,335.235646 L255.8272,335.278334 C262.646756,341.68151 269.708089,347.757413 276.8832,353.484698 C270.0992,354.110787 263.087644,354.430946 255.820089,354.430946 L255.805867,425.577347 C295.016533,425.577347 329.6832,418.427134 359.692089,405.898253 C380.918756,416.612901 396.001422,422.46825 398.0352,423.243746 C402.202311,424.83031 406.4832,425.584462 410.692978,425.584462 C425.014756,425.584462 438.518756,416.861913 443.9232,402.675321 C450.060089,386.567775 443.724089,368.77406 429.686756,359.916333" fill="#CB9963" id="Fill-1"/><path d="M151.914667,46.2290009 C151.914667,51.3444272 147.768889,55.4851478 142.663111,55.4851478 C137.550222,55.4851478 133.404444,51.3444272 133.404444,46.2290009 C133.404444,41.1135746 137.550222,36.972854 142.663111,36.972854 C147.768889,36.972854 151.914667,41.1135746 151.914667,46.2290009" fill="#FDDDC4" id="Fill-3"/><path d="M109.248,67.5729215 C109.248,72.6883478 105.102222,76.8290684 99.9964444,76.8290684 C94.8835556,76.8290684 90.7377778,72.6883478 90.7377778,67.5729215 C90.7377778,62.4574952 94.8835556,58.3167746 99.9964444,58.3167746 C105.102222,58.3167746 109.248,62.4574952 109.248,67.5729215" fill="#FDDDC4" id="Fill-5"/><path d="M67.1736889,93.2069701 C67.1736889,98.3223964 63.0279111,102.463117 57.9221333,102.463117 C52.8092444,102.463117 48.6634667,98.3223964 48.6634667,93.2069701 C48.6634667,88.0915438 52.8092444,83.9508232 57.9221333,83.9508232 C63.0279111,83.9508232 67.1736889,88.0915438 67.1736889,93.2069701" fill="#FDDDC4" id="Fill-7"/><path d="M76.4288,132.097728 C76.4288,137.213154 72.2830222,141.353875 67.1772444,141.353875 C62.0643556,141.353875 57.9185778,137.213154 57.9185778,132.097728 C57.9185778,126.982302 62.0643556,122.841581 67.1772444,122.841581 C72.2830222,122.841581 76.4288,126.982302 76.4288,132.097728" fill="#FDDDC4" id="Fill-9"/><path d="M48.6641778,162.73906 C48.6641778,167.854487 44.5184,171.995207 39.4126222,171.995207 C34.2997333,171.995207 30.1539556,167.854487 30.1539556,162.73906 C30.1539556,157.623634 34.2997333,153.482913 39.4126222,153.482913 C44.5184,153.482913 48.6641778,157.623634 48.6641778,162.73906" fill="#FDDDC4" id="Fill-11"/><path d="M63.488,197.506173 C63.488,202.621599 59.3422222,206.762319 54.2364444,206.762319 C49.1235556,206.762319 44.9777778,202.621599 44.9777778,197.506173 C44.9777778,192.390746 49.1235556,188.250026 54.2364444,188.250026 C59.3422222,188.250026 63.488,192.390746 63.488,197.506173" fill="#FDDDC4" id="Fill-13"/><path d="M72.7431111,248.336008 C72.7431111,253.451434 68.5973333,257.592155 63.4915556,257.592155 C58.3786667,257.592155 54.2328889,253.451434 54.2328889,248.336008 C54.2328889,243.220582 58.3786667,239.079861 63.4915556,239.079861 C68.5973333,239.079861 72.7431111,243.220582 72.7431111,248.336008" fill="#FDDDC4" id="Fill-15"/><path d="M76.4288,289.245189 C76.4288,294.360615 72.2830222,298.501336 67.1772444,298.501336 C62.0643556,298.501336 57.9185778,294.360615 57.9185778,289.245189 C57.9185778,284.129763 62.0643556,279.989042 67.1772444,279.989042 C72.2830222,279.989042 76.4288,284.129763 76.4288,289.245189" fill="#FDDDC4" id="Fill-17"/><path d="M109.248,320.223755 C109.248,325.339182 105.102222,329.479902 99.9964444,329.479902 C94.8835556,329.479902 90.7377778,325.339182 90.7377778,320.223755 C90.7377778,315.108329 94.8835556,310.967609 99.9964444,310.967609 C105.102222,310.967609 109.248,315.108329 109.248,320.223755" fill="#FDDDC4" id="Fill-19"/><path d="M48.6641778,232.272573 C48.6641778,237.388 44.5184,241.52872 39.4126222,241.52872 C34.2997333,241.52872 30.1539556,237.388 30.1539556,232.272573 C30.1539556,227.157147 34.2997333,223.016426 39.4126222,223.016426 C44.5184,223.016426 48.6641778,227.157147 48.6641778,232.272573" fill="#FDDDC4" id="Fill-21"/><path d="M197.607822,42.6716808 C197.607822,47.7871071 193.462044,51.9278277 188.356267,51.9278277 C183.243378,51.9278277 179.0976,47.7871071 179.0976,42.6716808 C179.0976,37.5562545 183.243378,33.4155339 188.356267,33.4155339 C193.462044,33.4155339 197.607822,37.5562545 197.607822,42.6716808" fill="#FDDDC4" id="Fill-23"/><path d="M239.850667,66.4416937 C239.850667,71.55712 235.704889,75.6978406 230.599111,75.6978406 C225.486222,75.6978406 221.340444,71.55712 221.340444,66.4416937 C221.340444,61.3262674 225.486222,57.1855468 230.599111,57.1855468 C235.704889,57.1855468 239.850667,61.3262674 239.850667,66.4416937" fill="#FDDDC4" id="Fill-25"/><path d="M278.498844,85.0052129 C278.498844,90.1206392 274.353067,94.2613598 269.247289,94.2613598 C264.1344,94.2613598 259.988622,90.1206392 259.988622,85.0052129 C259.988622,79.8897866 264.1344,75.749066 269.247289,75.749066 C274.353067,75.749066 278.498844,79.8897866 278.498844,85.0052129" fill="#FDDDC4" id="Fill-27"/><path d="M286.134756,125.576449 C286.134756,130.691875 281.988978,134.832596 276.8832,134.832596 C271.770311,134.832596 267.624533,130.691875 267.624533,125.576449 C267.624533,120.461022 271.770311,116.320302 276.8832,116.320302 C281.988978,116.320302 286.134756,120.461022 286.134756,125.576449" fill="#FDDDC4" id="Fill-29"/><path d="M230.595556,153.480067 C230.595556,158.595494 226.449778,162.736214 221.344,162.736214 C216.231111,162.736214 212.085333,158.595494 212.085333,153.480067 C212.085333,148.364641 216.231111,144.223921 221.344,144.223921 C226.449778,144.223921 230.595556,148.364641 230.595556,153.480067" fill="#FDDDC4" id="Fill-31"/><path d="M221.341156,193.883398 C221.341156,198.998824 217.195378,203.139545 212.0896,203.139545 C206.976711,203.139545 202.830933,198.998824 202.830933,193.883398 C202.830933,188.767971 206.976711,184.627251 212.0896,184.627251 C217.195378,184.627251 221.341156,188.767971 221.341156,193.883398" fill="#FDDDC4" id="Fill-33"/><path d="M243.981511,219.716656 C243.981511,224.832083 239.835733,228.972803 234.729956,228.972803 C229.617067,228.972803 225.471289,224.832083 225.471289,219.716656 C225.471289,214.60123 229.617067,210.460509 234.729956,210.460509 C239.835733,210.460509 243.981511,214.60123 243.981511,219.716656" fill="#FDDDC4" id="Fill-35"/><path d="M239.850667,258.112235 C239.850667,263.227661 235.704889,267.368382 230.599111,267.368382 C225.486222,267.368382 221.340444,263.227661 221.340444,258.112235 C221.340444,252.996809 225.486222,248.856088 230.599111,248.856088 C235.704889,248.856088 239.850667,252.996809 239.850667,258.112235" fill="#FDDDC4" id="Fill-37"/><path d="M269.244444,279.986196 C269.244444,285.101623 265.098667,289.242343 259.992889,289.242343 C254.88,289.242343 250.734222,285.101623 250.734222,279.986196 C250.734222,274.87077 254.88,270.730049 259.992889,270.730049 C265.098667,270.730049 269.244444,274.87077 269.244444,279.986196" fill="#FDDDC4" id="Fill-39"/><path d="M221.341156,329.482748 C221.341156,334.598174 217.195378,338.738895 212.0896,338.738895 C206.976711,338.738895 202.830933,334.598174 202.830933,329.482748 C202.830933,324.367322 206.976711,320.226601 212.0896,320.226601 C217.195378,320.226601 221.341156,324.367322 221.341156,329.482748" fill="#FDDDC4" id="Fill-41"/><path d="M188.353422,342.452026 C188.353422,347.567452 184.207644,351.708173 179.101867,351.708173 C173.988978,351.708173 169.8432,347.567452 169.8432,342.452026 C169.8432,337.3366 173.988978,333.195879 179.101867,333.195879 C184.207644,333.195879 188.353422,337.3366 188.353422,342.452026" fill="#FDDDC4" id="Fill-43"/><path d="M286.134756,315.72588 C286.134756,320.841306 281.988978,324.982027 276.8832,324.982027 C271.770311,324.982027 267.624533,320.841306 267.624533,315.72588 C267.624533,310.610454 271.770311,306.469733 276.8832,306.469733 C281.988978,306.469733 286.134756,310.610454 286.134756,315.72588" fill="#FDDDC4" id="Fill-45"/><path d="M323.443911,338.742452 C323.443911,343.857879 319.298133,347.998599 314.192356,347.998599 C309.079467,347.998599 304.933689,343.857879 304.933689,338.742452 C304.933689,333.627026 309.079467,329.486306 314.192356,329.486306 C319.298133,329.486306 323.443911,333.627026 323.443911,338.742452" fill="#FDDDC4" id="Fill-47"/><path d="M304.644267,153.480067 C304.644267,158.595494 300.498489,162.736214 295.392711,162.736214 C290.279822,162.736214 286.134044,158.595494 286.134044,153.480067 C286.134044,148.364641 290.279822,144.223921 295.392711,144.223921 C300.498489,144.223921 304.644267,148.364641 304.644267,153.480067" fill="#FDDDC4" id="Fill-49"/><path d="M304.644267,197.506173 C304.644267,202.621599 300.498489,206.762319 295.392711,206.762319 C290.279822,206.762319 286.134044,202.621599 286.134044,197.506173 C286.134044,192.390746 290.279822,188.250026 295.392711,188.250026 C300.498489,188.250026 304.644267,192.390746 304.644267,197.506173" fill="#FDDDC4" id="Fill-51"/><path d="M359.882667,46.2290009 C359.882667,51.3444272 364.028444,55.4851478 369.134222,55.4851478 C374.247111,55.4851478 378.392889,51.3444272 378.392889,46.2290009 C378.392889,41.1135746 374.247111,36.972854 369.134222,36.972854 C364.028444,36.972854 359.882667,41.1135746 359.882667,46.2290009" fill="#FDDDC4" id="Fill-53"/><path d="M402.549333,67.5729215 C402.549333,72.6883478 406.695111,76.8290684 411.800889,76.8290684 C416.913778,76.8290684 421.059556,72.6883478 421.059556,67.5729215 C421.059556,62.4574952 416.913778,58.3167746 411.800889,58.3167746 C406.695111,58.3167746 402.549333,62.4574952 402.549333,67.5729215" fill="#FDDDC4" id="Fill-55"/><path d="M444.623644,93.2069701 C444.623644,98.3223964 448.769422,102.463117 453.8752,102.463117 C458.988089,102.463117 463.133867,98.3223964 463.133867,93.2069701 C463.133867,88.0915438 458.988089,83.9508232 453.8752,83.9508232 C448.769422,83.9508232 444.623644,88.0915438 444.623644,93.2069701" fill="#FDDDC4" id="Fill-57"/><path d="M435.369244,132.097728 C435.369244,137.213154 439.515022,141.353875 444.6208,141.353875 C449.733689,141.353875 453.879467,137.213154 453.879467,132.097728 C453.879467,126.982302 449.733689,122.841581 444.6208,122.841581 C439.515022,122.841581 435.369244,126.982302 435.369244,132.097728" fill="#FDDDC4" id="Fill-59"/><path d="M463.133156,162.73906 C463.133156,167.854487 467.278933,171.995207 472.384711,171.995207 C477.4976,171.995207 481.643378,167.854487 481.643378,162.73906 C481.643378,157.623634 477.4976,153.482913 472.384711,153.482913 C467.278933,153.482913 463.133156,157.623634 463.133156,162.73906" fill="#FDDDC4" id="Fill-61"/><path d="M448.309333,197.506173 C448.309333,202.621599 452.455111,206.762319 457.560889,206.762319 C462.673778,206.762319 466.819556,202.621599 466.819556,197.506173 C466.819556,192.390746 462.673778,188.250026 457.560889,188.250026 C452.455111,188.250026 448.309333,192.390746 448.309333,197.506173" fill="#FDDDC4" id="Fill-63"/><path d="M439.054222,248.336008 C439.054222,253.451434 443.2,257.592155 448.305778,257.592155 C453.418667,257.592155 457.564444,253.451434 457.564444,248.336008 C457.564444,243.220582 453.418667,239.079861 448.305778,239.079861 C443.2,239.079861 439.054222,243.220582 439.054222,248.336008" fill="#FDDDC4" id="Fill-65"/><path d="M435.369244,289.245189 C435.369244,294.360615 439.515022,298.501336 444.6208,298.501336 C449.733689,298.501336 453.879467,294.360615 453.879467,289.245189 C453.879467,284.129763 449.733689,279.989042 444.6208,279.989042 C439.515022,279.989042 435.369244,284.129763 435.369244,289.245189" fill="#FDDDC4" id="Fill-67"/><path d="M402.549333,320.223755 C402.549333,325.339182 406.695111,329.479902 411.800889,329.479902 C416.913778,329.479902 421.059556,325.339182 421.059556,320.223755 C421.059556,315.108329 416.913778,310.967609 411.800889,310.967609 C406.695111,310.967609 402.549333,315.108329 402.549333,320.223755" fill="#FDDDC4" id="Fill-69"/><path d="M463.133156,232.272573 C463.133156,237.388 467.278933,241.52872 472.384711,241.52872 C477.4976,241.52872 481.643378,237.388 481.643378,232.272573 C481.643378,227.157147 477.4976,223.016426 472.384711,223.016426 C467.278933,223.016426 463.133156,227.157147 463.133156,232.272573" fill="#FDDDC4" id="Fill-71"/><path d="M314.189511,42.6716808 C314.189511,47.7871071 318.335289,51.9278277 323.441067,51.9278277 C328.553956,51.9278277 332.699733,47.7871071 332.699733,42.6716808 C332.699733,37.5562545 328.553956,33.4155339 323.441067,33.4155339 C318.335289,33.4155339 314.189511,37.5562545 314.189511,42.6716808" fill="#FDDDC4" id="Fill-73"/><path d="M255.3792,137.510546 C255.3792,137.510546 252.541867,201.848237 267.624533,238.417488 C282.7072,274.986739 300.484978,279.988331 300.484978,279.988331 C300.484978,279.988331 322.664533,258.110812 325.466311,223.014292 C330.081422,165.143809 255.3792,137.510546 255.3792,137.510546" fill="#010202" id="Fill-75" opacity="0.3"/><path d="M210.707911,279.986196 L159.195022,320.226601 C189.374578,359.606135 237.040356,359.606135 237.040356,359.606135 L259.987911,342.481196 L210.707911,279.986196 Z" fill="#010202" id="Fill-77" opacity="0.3"/><path d="M504.075378,173.807306 C504.075378,173.807306 472.388267,262.832799 359.997156,320.226601 L439.051378,359.919179 C439.051378,359.919179 524.306489,244.270703 504.075378,173.807306" fill="#010202" id="Fill-79" opacity="0.3"/><path d="M332.699022,388.81529 L350.263467,405.897541 C350.263467,405.897541 276.279467,450.257323 159.195022,405.897541 L243.9808,354.430234 L269.246578,354.430234 L332.699022,388.81529 Z" fill="#010202" id="Fill-81" opacity="0.3"/><path d="M427.498667,346.892984 L379.960889,323.108742 C417.941333,290.651753 440.312889,241.27615 440.490667,187.610419 C440.760889,104.426046 392.888889,74.6014745 351.843556,74.3382329 L350.634667,74.3311182 C333.376,74.3311182 317.731556,76.7572105 304.120889,81.5382487 C306.872889,80.5706577 309.76,79.7667033 312.675556,78.9983222 C309.824,74.3880353 306.808889,69.8986974 303.480889,65.615684 C296.625778,56.8006448 287.822222,47.4875807 276.693333,38.8148343 C298.069333,29.3808214 322.787556,24.5286368 350.556444,24.5286368 L352.135111,24.5357515 C433.770667,25.0622348 490.574222,92.1888651 490.268444,187.766942 C490.069333,247.956798 467.249778,305.471549 427.498667,346.892984 L427.498667,346.892984 Z M433.955556,398.87966 C430.300444,408.470195 420.956444,414.908945 410.688,414.908945 C407.658667,414.908945 404.679111,414.361117 401.820444,413.265463 C400.234667,412.667833 385.777778,407.089955 364.928,396.588746 L283.157333,344.836853 C240.170667,310.409109 213.248,273.334719 203.178667,234.65242 C190.371556,185.426225 192.504889,140.668023 209.265778,104.561224 C218.112,108.545423 226.161778,114.180218 232.348444,122.098813 C232.412444,122.177074 232.476444,122.255335 232.540444,122.34071 C233.258667,123.265613 233.927111,124.233205 234.581333,125.20791 C240.419556,134.108325 244.807111,146.267245 245.12,163.022223 C243.740444,181.022263 245.838222,200.872109 251.356444,222.10931 C263.992889,270.695188 314.403556,309.868397 354.467556,334.172008 C354.552889,334.22181 354.645333,334.236039 354.737778,334.285842 C354.901333,334.378332 355.050667,334.506396 355.221333,334.591771 L424.206222,369.112006 C434.019556,375.45115 438.129778,387.908885 433.955556,398.87966 L433.955556,398.87966 Z M176.035556,403.255164 L237.475556,364.366541 C243.463111,364.821878 249.585778,365.099348 255.800889,365.099348 C262.016,365.099348 268.138667,364.821878 274.119111,364.366541 L335.566222,403.255164 C310.904889,410.960319 284.188444,414.90183 255.800889,414.90183 C227.413333,414.90183 200.696889,410.960319 176.035556,403.255164 L176.035556,403.255164 Z M146.673778,396.588746 C125.824,407.089955 111.367111,412.667833 109.767111,413.272577 C106.915556,414.361117 103.936,414.908945 100.913778,414.908945 C90.6524444,414.908945 81.3084444,408.46308 77.6462222,398.87966 C73.472,387.908885 77.5822222,375.444035 87.3955556,369.112006 L156.302222,334.52774 C156.465778,334.442364 156.593778,334.32853 156.757333,334.236039 C156.849778,334.179122 156.956444,334.164893 157.048889,334.107976 C177.216,321.849451 194.460444,309.469977 208.867556,297.005127 C217.550222,309.925314 227.996444,322.568029 240.170667,334.883472 C236.366222,338.220238 232.540444,341.549889 228.437333,344.836853 L146.673778,396.588746 Z M182.535111,240.031088 C185.934222,253.086453 191.075556,265.914149 197.752889,278.507063 C197.752889,278.507063 197.752889,278.507063 197.752889,278.499948 C185.180444,289.662818 169.948444,300.896835 151.957333,312.17354 C114.730667,284.020909 92.6151111,237.953613 92.4444444,187.539273 C92.224,120.064025 128.661333,95.8813634 159.950222,95.6821534 L160.96,95.6750388 C169.514667,95.6750388 179.157333,96.3082418 188.785778,98.2007361 C170.979556,138.36288 168.753778,187.062592 182.535111,240.031088 L182.535111,240.031088 Z M227.249778,116.264808 C226.688,115.71698 226.133333,115.140694 225.564444,114.62844 C226.133333,115.140694 226.688,115.71698 227.249778,116.264808 L227.249778,116.264808 Z M231.089778,120.46956 C230.471111,119.708293 229.838222,118.968371 229.198222,118.271136 C229.838222,118.968371 230.464,119.708293 231.089778,120.46956 L231.089778,120.46956 Z M234.574222,125.193681 C233.969778,124.268778 233.336889,123.407906 232.704,122.554149 C233.344,123.407906 233.962667,124.268778 234.574222,125.193681 L234.574222,125.193681 Z M21.3333333,187.766942 C21.0275556,92.1888651 77.8311111,25.0622348 159.502222,24.5357515 C160.305778,24.5286368 161.102222,24.5215222 161.891556,24.5215222 C230.087111,24.5215222 267.349333,53.9049862 286.648889,78.7208512 C291.057778,84.3912195 294.926222,90.4600075 298.368,96.8062666 C298.439111,96.9272155 298.496,97.0623936 298.574222,97.1833425 C318.485333,134.165242 322.112,182.061 308.423111,234.65242 C306.019556,243.887223 302.599111,253.015307 298.282667,262.0509 C303.004444,267.401109 308.259556,272.751319 314.069333,278.065955 C320.632889,265.615335 325.710222,252.937046 329.066667,240.031088 C342.791111,187.268917 340.451556,138.384224 322.944,98.5351242 C331.406222,96.6924324 340.615111,95.6750388 350.634667,95.6750388 L351.672889,95.6821534 C401.699556,96.0023123 419.292444,145.363686 419.157333,187.539273 C418.986667,238.003416 396.842667,284.084941 359.559111,312.237572 C311.118222,281.729995 280.128,247.978142 272,216.730642 C268.736,204.173302 266.951111,192.334541 266.389333,181.178785 C266.901333,173.836476 267.029333,166.921046 266.680889,160.468067 C266.673778,160.781111 266.716444,161.079926 266.680889,161.400085 C266.787556,160.382691 266.702222,159.393756 266.538667,158.43328 C266.069333,151.660143 265.009778,145.449062 263.559111,139.565254 C263.488,139.273554 263.438222,138.967624 263.36,138.675924 C262.826667,136.591335 262.200889,134.577891 261.546667,132.600021 C261.176889,131.490138 260.8,130.401598 260.394667,129.327287 C259.818667,127.804754 259.235556,126.289336 258.574222,124.830834 C247.630222,100.079001 227.505778,87.4505147 212.380444,82.7619668 C195.072,76.2093832 176.469333,74.3311182 160.96,74.3311182 L159.786667,74.3382329 C118.712889,74.6014745 70.8408889,104.426046 71.1111111,187.610419 C71.2888889,241.240577 93.6391111,290.601951 131.576889,323.051825 L84.096,346.88587 C44.3448889,305.464434 21.5324444,247.949683 21.3333333,187.766942 L21.3333333,187.766942 Z M511.601778,187.838088 C511.943111,79.7311301 446.428444,3.80368993 352.270222,3.19183087 L350.556444,3.18471623 C312,3.18471623 278.314667,11.6297941 250.432,28.2851668 C252.231111,27.2037415 254.129778,26.264609 255.978667,25.2543301 C232.590222,12.4052899 201.955556,3.17760159 161.955556,3.17760159 C161.088,3.17760159 160.206222,3.18471623 159.331556,3.19183087 C65.1733333,3.80368993 -0.348444444,79.7311301 -1.99389116e-13,187.838088 C0.220444444,252.310957 24.2631111,314.122951 66.3537778,359.279573 C55.1751111,371.908059 51.4773333,390.100194 57.7137778,406.478096 C64.512,424.293155 81.8631111,436.252865 100.913778,436.252865 C106.552889,436.252865 112.085333,435.235472 117.361778,433.222028 C118.954667,432.617284 132.629333,427.338221 152.362667,417.598279 C183.765333,429.977752 218.538667,436.24575 255.800889,436.24575 C293.063111,436.24575 327.836444,429.977752 359.239111,417.598279 C378.972444,427.338221 392.647111,432.617284 394.225778,433.214914 C399.516444,435.235472 405.048889,436.252865 410.688,436.252865 C429.745778,436.252865 447.104,424.293155 453.880889,406.478096 C460.124444,390.100194 456.426667,371.908059 445.248,359.279573 C487.331556,314.122951 511.381333,252.310957 511.601778,187.838088 L511.601778,187.838088 Z" fill="#2E2E30" id="Fill-83"/></g></g></g></svg>