<?xml version="1.0" ?><svg height="512px" version="1.1" viewBox="0 0 512 512" width="512px" xmlns="http://www.w3.org/2000/svg" xmlns:xlink="http://www.w3.org/1999/xlink"><title/><desc/><defs/><g fill="none" fill-rule="evenodd" id="SVG" stroke="none" stroke-width="1"><g id="Pie"><g id="8" transform="translate(0.000000, 99.000000)"><path d="M396.476177,301.587261 L113.779034,301.587261 C91.7763325,301.587261 72.5264623,286.903329 66.8612156,265.811261 L36.5734234,152.99906 L473.681787,152.99906 L443.387345,265.811261 C437.722099,286.903329 418.472229,301.587261 396.476177,301.587261" fill="#B4814A" id="Fill-1"/><path d="M276.645569,301.586601 L396.473517,301.586601 C418.476218,301.586601 437.726088,286.909268 443.391335,265.810601 L473.679127,152.9984 L431.695127,152.9984 L403.156114,157.618064 C403.156114,157.618064 414.719335,288.209374 276.645569,301.586601" fill="#010202" id="Fill-3" opacity="0.3"/><path d="M55.1404052,108.998078 C85.5212883,56.6704806 163.784145,12.8166676 255.538535,12.8166676 C347.259678,12.8166676 425.495938,56.637483 455.903418,108.938682 L455.816977,108.96508 C481.317236,110.75355 501.444821,131.852217 501.444821,157.616744 C501.444821,184.562586 479.442119,206.400399 452.29947,206.400399 C425.156821,206.400399 403.154119,184.562586 403.154119,157.616744 C403.154119,184.562586 381.151418,206.400399 354.008769,206.400399 C326.85947,206.400399 304.856769,184.562586 304.856769,157.616744 C304.856769,184.562586 282.854068,206.400399 255.711418,206.400399 C228.568769,206.400399 206.566068,184.562586 206.566068,157.616744 C206.566068,184.562586 184.563366,206.400399 157.414068,206.400399 C130.271418,206.400399 108.268717,184.562586 108.268717,157.616744 C108.268717,184.562586 86.2660156,206.400399 59.1233662,206.400399 C31.9807169,206.400399 9.97801558,184.562586 9.97801558,157.616744 C9.97801558,132.010605 29.859574,111.010931 55.1404052,108.998078" fill="#FBAE3A" id="Fill-5"/><path d="M255.714078,88.3838158 C250.208416,88.3838158 245.740052,83.9555376 245.740052,78.4845353 L245.740052,56.3497439 C245.740052,50.8787415 250.208416,46.4504633 255.714078,46.4504633 C261.21974,46.4504633 265.688104,50.8787415 265.688104,56.3497439 L265.688104,78.4845353 C265.688104,83.9555376 261.21974,88.3838158 255.714078,88.3838158" fill="#2E2E30" id="Fill-7"/><path d="M169.279169,88.3838158 C166.426597,88.3838158 163.600623,87.1827031 161.632416,84.8464729 C158.088312,80.6557775 158.640208,74.4126312 162.862545,70.9016863 L189.459948,48.7602954 C193.688935,45.2493506 199.979221,45.7971108 203.510026,49.9878062 C207.05413,54.1719022 206.502234,60.421648 202.279896,63.9325928 L175.682494,86.0673842 C173.814026,87.624871 171.539948,88.3838158 169.279169,88.3838158" fill="#2E2E30" id="Fill-9"/><path d="M342.149652,88.3838158 C339.888873,88.3838158 337.614795,87.624871 335.746327,86.0673842 L309.148925,63.9325928 C304.926587,60.421648 304.374691,54.1719022 307.918795,49.9878062 C311.456249,45.8037103 317.733236,45.2493506 321.968873,48.7602954 L348.566275,70.9016863 C352.788613,74.4126312 353.340509,80.6557775 349.796405,84.8464729 C347.828197,87.1761036 345.002223,88.3838158 342.149652,88.3838158" fill="#2E2E30" id="Fill-11"/><path d="M452.300135,206.398419 C479.442784,206.398419 501.445486,184.560606 501.445486,157.621364 C501.445486,131.856836 481.317901,110.75157 455.817642,108.9631 L455.904083,108.936702 C425.496603,56.6421026 347.260343,12.8146878 255.5392,12.8146878 C255.5392,12.8146878 402.443304,49.9105918 403.154784,157.621364 C403.154784,184.560606 425.157486,206.398419 452.300135,206.398419" fill="#010202" id="Fill-13" opacity="0.3"/><path d="M452.298805,196.499799 C430.701714,196.499799 413.127481,179.057266 413.127481,157.615424 C413.127481,152.151022 408.665766,147.716144 403.153455,147.716144 C397.647792,147.716144 393.179429,152.151022 393.179429,157.615424 C393.179429,179.057266 375.611844,196.499799 354.008104,196.499799 C332.404364,196.499799 314.83013,179.057266 314.83013,157.615424 C314.83013,152.151022 310.361766,147.716144 304.856104,147.716144 C299.350442,147.716144 294.882078,152.151022 294.882078,157.615424 C294.882078,179.057266 277.314494,196.499799 255.717403,196.499799 C234.113662,196.499799 216.539429,179.057266 216.539429,157.615424 C216.539429,152.151022 212.071065,147.716144 206.565403,147.716144 C201.05974,147.716144 196.591377,152.151022 196.591377,157.615424 C196.591377,179.057266 179.017143,196.499799 157.413403,196.499799 C135.816312,196.499799 118.248727,179.057266 118.248727,157.615424 C118.248727,152.151022 113.780364,147.716144 108.274701,147.716144 C102.769039,147.716144 98.3006753,152.151022 98.3006753,157.615424 C98.3006753,179.057266 80.7264416,196.499799 59.1227013,196.499799 C37.518961,196.499799 19.9513766,179.057266 19.9513766,157.615424 C19.9513766,137.493487 35.7568831,120.466724 55.9443117,118.863041 C59.2157922,118.605659 62.1481558,116.764393 63.7838961,113.939799 C89.2908052,70.0067914 160.172883,22.7146283 255.53787,22.7146283 C350.05839,22.7146283 420.561455,69.1950504 446.62026,112.791482 C448.043221,116.170436 451.288104,118.572662 455.11813,118.836643 C475.505039,120.268739 491.476779,137.302101 491.476779,157.615424 C491.476779,179.057266 473.902545,196.499799 452.298805,196.499799 M459.739429,215.783597 C460.038649,215.744 460.331221,215.691204 460.630442,215.645007 C460.331221,215.691204 460.038649,215.744 459.739429,215.783597 M446.460675,215.928787 L433.753766,263.260547 C429.258805,279.99693 413.925403,291.691281 396.470857,291.691281 L113.773714,291.691281 C96.3191688,291.691281 80.9924156,279.99693 76.4974545,263.253947 L63.8104935,216.001381 C82.3156364,214.542887 98.4802078,204.709602 108.274701,190.203856 C118.887065,205.930513 136.953351,216.29836 157.413403,216.29836 C177.873455,216.29836 195.94639,205.930513 206.565403,190.203856 C217.184416,205.930513 235.250701,216.29836 255.717403,216.29836 C276.177455,216.29836 294.237091,205.930513 304.856104,190.203856 C315.475117,205.930513 333.548052,216.29836 354.008104,216.29836 C374.468156,216.29836 392.541091,205.930513 403.153455,190.203856 C413.772468,205.930513 431.838753,216.29836 452.298805,216.29836 C450.323948,216.29836 448.388987,216.120173 446.460675,215.928787 M49.9133506,215.513017 C50.3854545,215.585612 50.8509091,215.664806 51.3296623,215.730801 C50.8509091,215.664806 50.3854545,215.585612 49.9133506,215.513017 M511.424831,157.615424 C511.424831,128.788719 490.100364,104.337496 461.953662,99.7244317 C425.807792,42.5065899 341.873039,2.91606715 255.53787,2.91606715 C169.156156,2.91606715 85.2081039,42.5263885 49.0821818,99.7904269 C21.1682078,104.56848 0.00332467532,129.019703 0.00332467532,157.615424 C0.00332467532,184.284086 18.0297143,206.808249 42.6123636,213.922532 L57.2276364,268.355376 C64.0365714,293.750331 87.2893506,311.489842 113.773714,311.489842 L396.470857,311.489842 C422.955221,311.489842 446.214649,293.750331 453.023584,268.355376 L467.552416,214.245909 L467.552416,214.245909 C492.773403,207.547396 511.424831,184.732854 511.424831,157.615424" fill="#2E2E31" id="Fill-15"/></g></g></g></svg>