<svg xmlns="http://www.w3.org/2000/svg" viewBox="0 0 42.74 56.13"><defs><style>.cls-1{fill:#cebe8a;}.cls-2{fill:#dd310a;}.cls-3{fill:#c1272d;}.cls-4{fill:#dba753;}.cls-5{fill:#bc7324;}.cls-6{fill:#aa673a;}.cls-7{fill:#7a3c26;opacity:0.25;}.cls-8{fill:#efe9b9;}.cls-9{fill:#efdd35;}.cls-10{fill:#efedd3;}.cls-11{fill:#eadaa7;}.cls-12{fill:none;stroke:#eadaa7;stroke-miterlimit:10;}.cls-13{fill:#c4b282;opacity:0.35;}.cls-14{opacity:0.09;}.cls-15{fill:#ffe18d;opacity:0.39;}</style></defs><g id="Слой_2" data-name="Слой 2"><rect class="cls-1" width="42.74" height="56.13"/></g><g id="Слой_3" data-name="Слой 3"><rect class="cls-2" width="42.74" height="7.38"/><rect class="cls-2" y="34" width="42.74" height="22.13"/></g><g id="Слой_4" data-name="Слой 4"><ellipse class="cls-3" cx="24.73" cy="37.06" rx="14.83" ry="5.04"/><path class="cls-4" d="M51.83,38.31c0,.24,0,.15,0,.39a3.61,3.61,0,0,1-2,2.95c-2,1.29-5.3,2.1-9,2.42C35.19,44.59,28.69,44,25,42.15c-1.78-.88-2.88-2-2.88-3.45,0-8.24,4.93-11.43,9-12.67a17.85,17.85,0,0,1,5.41-.76C51.67,25.27,51.93,36.07,51.83,38.31Z" transform="translate(-10.64 -4)"/><path class="cls-5" d="M49.83,41.27c0,.13,0,.26,0,.38-2,1.29-5.29,2.09-8.94,2.42a26.54,26.54,0,0,0,.66-5.59c0-3.67-.71-8.3-4.16-11.19C37.37,27.29,50.42,26.08,49.83,41.27Z" transform="translate(-10.64 -4)"/><path class="cls-3" d="M41.53,38.48l8.66,2.91c-1.94,1.44-5.43,2.33-9.32,2.68A26.54,26.54,0,0,0,41.53,38.48Z" transform="translate(-10.64 -4)"/><path class="cls-6" d="M42.53,31.68a.75.75,0,0,0,0-1.5.75.75,0,0,0,0,1.5Z" transform="translate(-10.64 -4)"/><path class="cls-6" d="M45.54,32.89a.38.38,0,0,0,0-.75.38.38,0,0,0,0,.75Z" transform="translate(-10.64 -4)"/><path class="cls-6" d="M44.11,37.31a.38.38,0,0,0,0-.75.38.38,0,0,0,0,.75Z" transform="translate(-10.64 -4)"/><path class="cls-6" d="M47.33,36a.38.38,0,0,0,0-.75.38.38,0,0,0,0,.75Z" transform="translate(-10.64 -4)"/><path class="cls-6" d="M47.33,38.71a.38.38,0,0,0,0-.75.38.38,0,0,0,0,.75Z" transform="translate(-10.64 -4)"/><path class="cls-6" d="M43.09,34.85a.75.75,0,0,0,0-1.5.75.75,0,0,0,0,1.5Z" transform="translate(-10.64 -4)"/><path class="cls-7" d="M25,42.15c-1.78-.88-2.88-2-2.88-3.45,0-8.24,4.93-11.43,9-12.67C28.86,28,23.33,33.82,25,42.15Z" transform="translate(-10.64 -4)"/><path class="cls-8" d="M24,10.23a8.77,8.77,0,0,1-.07,1.15A10.39,10.39,0,0,1,13.6,20.64a9.92,9.92,0,0,1-2-.19,8.24,8.24,0,0,1-1-.24V4h11.3A10.36,10.36,0,0,1,24,10.23Z" transform="translate(-10.64 -4)"/><path class="cls-9" d="M53.38,9.76v9a6.37,6.37,0,0,1-3.13,1.7,6.1,6.1,0,0,1-1.36.15,6.36,6.36,0,0,1-6.36-6.37,6.45,6.45,0,0,1,2.2-4.82,6.38,6.38,0,0,1,8.65.31Z" transform="translate(-10.64 -4)"/></g><g id="Слой_5" data-name="Слой 5"><path class="cls-10" d="M39.53,51.3a3.11,3.11,0,0,1-1.88.8l-5,.43c-4.31.33-9.55.83-12.81.22l-.27,0L18,52.57l-2.45-.21H15.4A3.35,3.35,0,0,1,14.13,52l-.2-.11-.2-.12c-1-.65-1.54-1.35-1.31-2a1.16,1.16,0,0,1,.2-.38l.26-.34,1.52-2.06.5-.69.3-.39.46-.63,1.17-1.58h0l0,0,.19-.3c.13-.17.28-.41.46-.69.86-1.26,2.2-3.25,2.27-3.33l.7-.88.49-.63,1.11-1.4a4.72,4.72,0,0,1,2.34-1.57,5.7,5.7,0,0,1,6.08,1.61l2.69,3.14c.06.08,2.06,2.86,2.75,3.89l3.77,5.64A1.5,1.5,0,0,1,39.53,51.3Z" transform="translate(-10.64 -4)"/><circle class="cls-11" cx="13.85" cy="31.93" r="0.36"/><circle class="cls-12" cx="11.3" cy="35.48" r="0.36"/><circle class="cls-12" cx="19.72" cy="37.12" r="0.36"/><circle class="cls-11" cx="17.07" cy="43.36" r="0.36"/><circle class="cls-11" cx="25.2" cy="45.3" r="0.36"/><path class="cls-12" d="M30.72,40.39" transform="translate(-10.64 -4)"/><circle class="cls-11" cx="13.85" cy="36.76" r="0.36"/><circle class="cls-11" cx="10.93" cy="38.23" r="0.36"/><circle class="cls-11" cx="7.82" cy="40.6" r="0.36"/><circle class="cls-11" cx="17.85" cy="38.96" r="0.36"/><circle class="cls-11" cx="23.3" cy="40.24" r="0.36"/><circle class="cls-11" cx="9.84" cy="44.94" r="0.36"/><circle class="cls-11" cx="5.95" cy="44.57" r="0.36"/><path class="cls-10" d="M15.14,46.63a.43.43,0,0,1-.43.43.41.41,0,0,1-.42-.43.42.42,0,0,1,.42-.43.53.53,0,0,1,.19,0A.44.44,0,0,1,15.14,46.63Z" transform="translate(-10.64 -4)"/><path class="cls-10" d="M17.8,43a.42.42,0,0,1-.42.43.41.41,0,0,1-.33-.15.43.43,0,0,1,.33-.71l.13,0A.44.44,0,0,1,17.8,43Z" transform="translate(-10.64 -4)"/><path class="cls-10" d="M16,45.65a.43.43,0,0,1-.43.43.39.39,0,0,1-.37-.23.36.36,0,0,1-.06-.2.43.43,0,0,1,.43-.44h.09A.43.43,0,0,1,16,45.65Z" transform="translate(-10.64 -4)"/><path class="cls-10" d="M21.27,38.19a.42.42,0,0,1-.79.21.42.42,0,0,1-.06-.21.44.44,0,0,1,.43-.44l.12,0A.45.45,0,0,1,21.27,38.19Z" transform="translate(-10.64 -4)"/><path class="cls-10" d="M13.05,49.33a.44.44,0,0,1-.43.44.36.36,0,0,1-.2-.06.42.42,0,0,1-.23-.38.43.43,0,0,1,.43-.43.39.39,0,0,1,.26.09A.44.44,0,0,1,13.05,49.33Z" transform="translate(-10.64 -4)"/><path class="cls-13" d="M24.42,34.8C21.7,38.57,19.28,46.23,18,52.57h0l-2.45-.22H15.4A3.35,3.35,0,0,1,14.13,52l-.2-.11-.2-.12c-1-.65-1.54-1.35-1.31-2a.42.42,0,0,1-.23-.38.43.43,0,0,1,.43-.43.39.39,0,0,1,.26.09l1.52-2.06a.44.44,0,0,1-.11-.3.42.42,0,0,1,.42-.43.53.53,0,0,1,.19,0l.3-.39a.36.36,0,0,1-.06-.2.43.43,0,0,1,.43-.44h.09l1.17-1.58h0l0,0,.19-.3a.43.43,0,0,1,.33-.71l.13,0c.86-1.26,2.2-3.25,2.27-3.33l.7-.88a.42.42,0,0,1-.06-.21.44.44,0,0,1,.43-.44l.12,0,1.11-1.4A4.72,4.72,0,0,1,24.42,34.8Z" transform="translate(-10.64 -4)"/><path class="cls-2" d="M11.29,49.57s10.41,5.78,30.08,0v4.62L12.44,55.35Z" transform="translate(-10.64 -4)"/><circle class="cls-10" cx="28.26" cy="43.59" r="0.36"/><circle class="cls-10" cx="22.48" cy="35.49" r="0.36"/><circle class="cls-10" cx="9.75" cy="40.12" r="0.36"/><circle class="cls-10" cx="31.73" cy="45.9" r="0.36"/><circle class="cls-10" cx="29.42" cy="45.9" r="0.36"/><circle class="cls-10" cx="29.42" cy="44.74" r="0.36"/><circle class="cls-10" cx="27.1" cy="48.22" r="0.36"/><circle class="cls-10" cx="13.22" cy="49.37" r="0.36"/></g><g id="Слой_6" data-name="Слой 6"><polygon class="cls-14" points="12.53 56.13 0 56.13 0 13.08 0.98 16.45 6.09 34 7.26 38.04 8.71 43 10.43 48.92 12.53 56.13"/><polygon class="cls-15" points="42.74 0 42.74 22.76 39.61 16.49 35.05 7.38 34.09 5.45 31.36 0 42.74 0"/></g></svg>