<svg xmlns="http://www.w3.org/2000/svg" viewBox="0 0 45.27 57.38"><defs><style>.cls-1{fill:#6b4f2d;}.cls-2{fill:#937452;}.cls-3{fill:#dbbd6a;}.cls-4{fill:#725330;}.cls-4,.cls-8{opacity:0.52;}.cls-5{fill:#379b39;}.cls-6{fill:#67c967;}.cls-7{fill:#705234;opacity:0.44;}.cls-8,.cls-9{fill:#e8d47e;}.cls-10{opacity:0.63;}.cls-11{fill:#edaf7c;}</style></defs><g id="Слой_2" data-name="Слой 2"><path class="cls-1" d="M51,25.76s-.5-3.8,1.68-6.1L56,21.55s-5.69,3.83-4.73,5.26h0Z" transform="translate(-10.74 -4.05)"/><path class="cls-1" d="M37.41,58.17c-1.15.26-2.13.43-2.86.54a1.85,1.85,0,0,1-1.95-1.09,32.34,32.34,0,0,1-3.15-11.87A16.69,16.69,0,0,1,34.08,33a25.66,25.66,0,0,1,9.74-6,37.09,37.09,0,0,1,6.11-1.66,1.89,1.89,0,0,1,1,.11,1.92,1.92,0,0,1,.46.27,1.86,1.86,0,0,1,.55.71C62.26,49.5,45.66,56.28,37.41,58.17Z" transform="translate(-10.74 -4.05)"/><path class="cls-2" d="M48.55,28.6c-5,.9-23.63,5.72-14.24,26.54a1.55,1.55,0,0,0,1.61.9c4.92-.72,23.92-4.94,14.3-26.55A1.52,1.52,0,0,0,48.55,28.6Z" transform="translate(-10.74 -4.05)"/><path class="cls-3" d="M46.39,32.86,45,32.09A.61.61,0,0,1,45.18,31c1-.3,1.94-.48,2.58-.6a1.34,1.34,0,0,1,.63,0l-1.16,2.19A.62.62,0,0,1,46.39,32.86Z" transform="translate(-10.74 -4.05)"/><path class="cls-3" d="M44.16,36l-2.92-1.65a1.09,1.09,0,0,1,.08-1.94c.36-.17.71-.32,1.06-.47a1.13,1.13,0,0,1,.95.07l2.32,1.31a1.08,1.08,0,0,1,.43,1.46l-.42.79A1.09,1.09,0,0,1,44.16,36Z" transform="translate(-10.74 -4.05)"/><path class="cls-3" d="M42,40.08l-5.09-2.87a1.09,1.09,0,0,1-.23-1.72,16.65,16.65,0,0,1,1.52-1.26,1.09,1.09,0,0,1,1.15,0l4.49,2.53a1.09,1.09,0,0,1,.43,1.45l-.79,1.48A1.08,1.08,0,0,1,42,40.08Z" transform="translate(-10.74 -4.05)"/><path class="cls-3" d="M39.57,44.86l-5.63-3.17a1,1,0,0,1-.46-1.22,11.52,11.52,0,0,1,1.21-2.55,1,1,0,0,1,1.36-.33l5.72,3.23a1,1,0,0,1,.39,1.35L41,44.45A1,1,0,0,1,39.57,44.86Z" transform="translate(-10.74 -4.05)"/><path class="cls-3" d="M37.2,48.81l-3.68-2.08a1.24,1.24,0,0,1-.64-1,16.88,16.88,0,0,1,0-1.73,1.25,1.25,0,0,1,1.86-1l4.34,2.45a1.24,1.24,0,0,1,.49,1.67l-.63,1.19A1.24,1.24,0,0,1,37.2,48.81Z" transform="translate(-10.74 -4.05)"/><path class="cls-3" d="M35.65,54.47a1.29,1.29,0,0,1-.5-.58,28.8,28.8,0,0,1-1.77-5,.69.69,0,0,1,1-.75l3,1.68a.68.68,0,0,1,.27.92Z" transform="translate(-10.74 -4.05)"/><path class="cls-3" d="M39,50.72l3.07,1.73a.46.46,0,0,1-.07.82A26.22,26.22,0,0,1,36.4,54.7l2-3.8A.46.46,0,0,1,39,50.72Z" transform="translate(-10.74 -4.05)"/><path class="cls-3" d="M46.17,51.12a18,18,0,0,1-1.92,1.15,1,1,0,0,1-1,0l-3.45-2A1,1,0,0,1,39.45,49l.85-1.61a1,1,0,0,1,1.39-.4l4.39,2.47A1,1,0,0,1,46.17,51.12Z" transform="translate(-10.74 -4.05)"/><path class="cls-3" d="M49.55,34.64l-1.48-.84a.55.55,0,0,1-.22-.74L49,30.84a.93.93,0,0,1,.21.33c.43,1,.8,1.91,1.11,2.81A.56.56,0,0,1,49.55,34.64Z" transform="translate(-10.74 -4.05)"/><path class="cls-3" d="M50.38,39.51l-3.94-2.22a.74.74,0,0,1-.3-1l.74-1.4a.76.76,0,0,1,1-.3l2.85,1.61a.73.73,0,0,1,.36.49,19.65,19.65,0,0,1,.37,2.09A.75.75,0,0,1,50.38,39.51Z" transform="translate(-10.74 -4.05)"/><path class="cls-3" d="M49.88,44.51l-5.43-3.06a.93.93,0,0,1-.37-1.26L45,38.46a1,1,0,0,1,1.3-.38L51.1,40.8a.91.91,0,0,1,.48.86,12.28,12.28,0,0,1-.33,2.27A.93.93,0,0,1,49.88,44.51Z" transform="translate(-10.74 -4.05)"/><path class="cls-3" d="M47.24,49.19l-5.16-2.91a1.11,1.11,0,0,1-.44-1.49l1.12-2.11a1.1,1.1,0,0,1,1.52-.44l5.44,3.06a1.12,1.12,0,0,1,.43,1.5A12.15,12.15,0,0,1,48.62,49,1.11,1.11,0,0,1,47.24,49.19Z" transform="translate(-10.74 -4.05)"/><polygon class="cls-2" points="30.4 41.69 30.04 42.37 29.38 41.99 29.73 41.31 30.4 41.69"/><path class="cls-4" d="M44.74,36.13q0,1.48-.15,3.09h0c-.07.7-.15,1.41-.25,2.14-.05.28-.09.56-.14.84a37,37,0,0,1-1.09,4.65l-.24.74a36.3,36.3,0,0,1-1.4,3.62c-.1.24-.21.47-.32.7-.31.66-.65,1.32-1,2-.26.48-.53,1-.82,1.43-.58,1-1.21,1.9-1.91,2.84-1.15.26-2.13.43-2.86.54a1.85,1.85,0,0,1-1.95-1.09,32.34,32.34,0,0,1-3.15-11.87L34.08,33a25.66,25.66,0,0,1,9.74-6c.17.77.34,1.68.49,2.71s.26,2,.34,3.08S44.76,35,44.74,36.13Z" transform="translate(-10.74 -4.05)"/></g><g id="Слой_4" data-name="Слой 4"><path class="cls-1" d="M26,13s-3-4-2-8h5s-4,8-2,9h0Z" transform="translate(-10.74 -4.05)"/><path class="cls-5" d="M44,5S30,0,26,13C26,13,36,16,44,5Z" transform="translate(-10.74 -4.05)"/><path class="cls-6" d="M44,5S33,6,26,13.08C26,13.08,36,16,44,5Z" transform="translate(-10.74 -4.05)"/><path class="cls-1" d="M24.51,13.17c-6.18,5.12-28.2,26.32,1,47.78a2.43,2.43,0,0,0,2.92,0c6.25-4.84,29.21-25.48-.93-47.84A2.43,2.43,0,0,0,24.51,13.17Z" transform="translate(-10.74 -4.05)"/><path class="cls-2" d="M28.29,57a1.9,1.9,0,0,1-1.33.39A2,2,0,0,1,25.89,57c-24-17.63-5.92-35-.84-39.26a1.86,1.86,0,0,1,1-.42,2,2,0,0,1,1.49.37C52.29,36.1,33.42,53.06,28.29,57Z" transform="translate(-10.74 -4.05)"/><path class="cls-7" d="M27,57.42A2,2,0,0,1,25.89,57c-24-17.63-5.92-35-.84-39.26a1.86,1.86,0,0,1,1-.42Z" transform="translate(-10.74 -4.05)"/><path class="cls-3" d="M26.12,23.19a.8.8,0,0,1-.79.81h-2a.8.8,0,0,1-.56-1.36c.87-.88,1.67-1.59,2.29-2.13a2.43,2.43,0,0,0,.25-.2A1.82,1.82,0,0,1,26,20Z" transform="translate(-10.74 -4.05)"/><path class="cls-3" d="M26.23,27.55a1.38,1.38,0,0,1-1,1.37,1.27,1.27,0,0,1-.44.08H20.44a1.43,1.43,0,0,1-1.15-2.26c.29-.42.6-.82.9-1.21A1.42,1.42,0,0,1,21.31,25h3.48a1.1,1.1,0,0,1,.37.06,1.38,1.38,0,0,1,1,1.32Z" transform="translate(-10.74 -4.05)"/><path class="cls-3" d="M26.39,33.56a1.38,1.38,0,0,1-1,1.37A1.21,1.21,0,0,1,25,35H17.38A1.41,1.41,0,0,1,16,33.2a19.15,19.15,0,0,1,.91-2.4,1.39,1.39,0,0,1,1.28-.8h6.72a1.49,1.49,0,0,1,.36.05,1.4,1.4,0,0,1,1.05,1.32Z" transform="translate(-10.74 -4.05)"/><path class="cls-3" d="M26.58,40.65a1.29,1.29,0,0,1-1,1.3,1,1,0,0,1-.33,0H16.85a1.33,1.33,0,0,1-1.3-1.09,14.85,14.85,0,0,1-.26-3.67A1.32,1.32,0,0,1,16.61,36h8.57a1.24,1.24,0,0,1,.27,0,1.3,1.3,0,0,1,1,1.25Z" transform="translate(-10.74 -4.05)"/><path class="cls-3" d="M26.74,46.33a1.62,1.62,0,0,1-1,1.53,1.58,1.58,0,0,1-.65.14H19.6a1.62,1.62,0,0,1-1.35-.71,20.8,20.8,0,0,1-1.14-1.94A1.62,1.62,0,0,1,18.57,43h6.5a1.69,1.69,0,0,1,.56.1,1.62,1.62,0,0,1,1.06,1.48Z" transform="translate(-10.74 -4.05)"/><path class="cls-3" d="M27,55.42a1.66,1.66,0,0,1-.94-.34L26,55a37,37,0,0,1-5.14-4.5A.9.9,0,0,1,21.48,49h4.45a.9.9,0,0,1,.9.88Z" transform="translate(-10.74 -4.05)"/><path class="cls-3" d="M33.45,50a32.38,32.38,0,0,1-3.57,3.67c-.75.68-1.41,1.2-1.9,1.57l-.15-5.61a.58.58,0,0,1,.58-.6H33A.59.59,0,0,1,33.45,50Z" transform="translate(-10.74 -4.05)"/><path class="cls-3" d="M36.77,44.87a20.31,20.31,0,0,1-1.44,2.54,1.31,1.31,0,0,1-1.1.59H29.07a1.32,1.32,0,0,1-1.32-1.28l-.06-2.37A1.31,1.31,0,0,1,29,43h6.58A1.31,1.31,0,0,1,36.77,44.87Z" transform="translate(-10.74 -4.05)"/><path class="cls-3" d="M30.79,23.25a.73.73,0,0,1-.73.75H27.84a.72.72,0,0,1-.72-.7L27,20a1.4,1.4,0,0,1,.45.24c.95.7,1.82,1.4,2.63,2.09l.44.39A.76.76,0,0,1,30.79,23.25Z" transform="translate(-10.74 -4.05)"/><path class="cls-3" d="M34.11,29H28.22a1,1,0,0,1-1-.95l0-2.05a1,1,0,0,1,1-1h4.27a1,1,0,0,1,.73.32,25.05,25.05,0,0,1,1.75,2.15A1,1,0,0,1,34.11,29Z" transform="translate(-10.74 -4.05)"/><path class="cls-3" d="M36.75,35H28.63a1.23,1.23,0,0,1-1.23-1.2l-.07-2.54A1.23,1.23,0,0,1,28.56,30h7.2a1.25,1.25,0,0,1,1.11.67,17.88,17.88,0,0,1,1.07,2.79A1.22,1.22,0,0,1,36.75,35Z" transform="translate(-10.74 -4.05)"/><path class="cls-3" d="M38.53,37.42a15.56,15.56,0,0,1-.36,3.44A1.45,1.45,0,0,1,36.76,42H29a1.44,1.44,0,0,1-1.45-1.4l-.08-3.12A1.44,1.44,0,0,1,28.94,36h8.14A1.45,1.45,0,0,1,38.53,37.42Z" transform="translate(-10.74 -4.05)"/><polygon class="cls-2" points="16.88 37.95 16.91 38.95 15.91 38.95 15.88 37.95 16.88 37.95"/><path class="cls-8" d="M30.79,23.25c-.24-.32-.46-.62-.68-.9l.44.39A.76.76,0,0,1,30.79,23.25Z" transform="translate(-10.74 -4.05)"/><path class="cls-8" d="M33.45,50a32.38,32.38,0,0,1-3.57,3.67A33.38,33.38,0,0,0,32.81,49H33A.59.59,0,0,1,33.45,50Z" transform="translate(-10.74 -4.05)"/><path class="cls-8" d="M34,29A25.78,25.78,0,0,0,32,25h.48a1,1,0,0,1,.73.32,25.05,25.05,0,0,1,1.75,2.15,1,1,0,0,1-.8,1.53Z" transform="translate(-10.74 -4.05)"/><path class="cls-8" d="M36.77,44.87a20.31,20.31,0,0,1-1.44,2.54,1.31,1.31,0,0,1-1.1.59h-.91a26.21,26.21,0,0,0,1.78-5h.48A1.31,1.31,0,0,1,36.77,44.87Z" transform="translate(-10.74 -4.05)"/><path class="cls-8" d="M34.38,30h1.38a1.25,1.25,0,0,1,1.11.67,17.88,17.88,0,0,1,1.07,2.79A1.22,1.22,0,0,1,36.75,35H35.58A21.91,21.91,0,0,0,34.38,30Z" transform="translate(-10.74 -4.05)"/><path class="cls-8" d="M38.53,37.42a15.56,15.56,0,0,1-.36,3.44A1.45,1.45,0,0,1,36.76,42H35.32a21.77,21.77,0,0,0,.36-6h1.4A1.45,1.45,0,0,1,38.53,37.42Z" transform="translate(-10.74 -4.05)"/><path class="cls-9" d="M25.33,24h-.2L25,20.51a2.43,2.43,0,0,0,.25-.2A1.82,1.82,0,0,1,26,20l.09,3.24A.8.8,0,0,1,25.33,24Z" transform="translate(-10.74 -4.05)"/><path class="cls-9" d="M25.26,28.92l-.1-3.86a1.38,1.38,0,0,1,1,1.32l0,1.17A1.38,1.38,0,0,1,25.26,28.92Z" transform="translate(-10.74 -4.05)"/><path class="cls-9" d="M25.42,34.93l-.13-4.88a1.4,1.4,0,0,1,1.05,1.32l.05,2.19A1.38,1.38,0,0,1,25.42,34.93Z" transform="translate(-10.74 -4.05)"/><path class="cls-9" d="M25.6,42,25.45,36a1.3,1.3,0,0,1,1,1.25l.09,3.37A1.29,1.29,0,0,1,25.6,42Z" transform="translate(-10.74 -4.05)"/><path class="cls-9" d="M25.76,47.86l-.13-4.76a1.62,1.62,0,0,1,1.06,1.48l0,1.75A1.62,1.62,0,0,1,25.76,47.86Z" transform="translate(-10.74 -4.05)"/><path class="cls-9" d="M27,55.42a1.66,1.66,0,0,1-.94-.34L26,55l-.16-6h.14a.9.9,0,0,1,.9.88Z" transform="translate(-10.74 -4.05)"/><g class="cls-10"><path class="cls-11" d="M30.39,18.67a6.75,6.75,0,0,0,.67.64A8.28,8.28,0,0,0,32,20a.8.8,0,0,0,.42.13.77.77,0,0,0,.45,0,.82.82,0,0,0,.38-.2.86.86,0,0,0,.29-.31,1.11,1.11,0,0,0,.11-.87,1.19,1.19,0,0,0-.51-.67,5.39,5.39,0,0,1-.63-.43l.22.18a6.56,6.56,0,0,1-.77-.72.77.77,0,0,0-.36-.23.83.83,0,0,0-.43-.1.84.84,0,0,0-.44.1.77.77,0,0,0-.36.23,1.14,1.14,0,0,0-.33.8l0,.29a1.05,1.05,0,0,0,.29.5Z" transform="translate(-10.74 -4.05)"/></g><g class="cls-10"><path class="cls-11" d="M36.06,24.57a1.13,1.13,0,0,0,0-2.25,1.13,1.13,0,0,0,0,2.25Z" transform="translate(-10.74 -4.05)"/></g></g></svg>