<svg xmlns="http://www.w3.org/2000/svg" viewBox="0 0 36 57"><defs><style>.cls-1{fill:#6d462c;}.cls-2{fill:#603c2b;}.cls-3{fill:#7f5a41;}.cls-4{fill:#cc8f4e;opacity:0.52;}.cls-5{fill:#51321d;opacity:0.48;}.cls-6{fill:#b79279;opacity:0.47;}</style></defs><g id="Слой_2" data-name="Слой 2"><rect class="cls-1" width="36" height="57"/><rect class="cls-2" x="17.98" y="47.04" width="15.02" height="8.77"/><rect class="cls-2" x="1" y="47.04" width="15" height="8.77"/><rect class="cls-2" x="1" y="36.08" width="15" height="8.77"/><rect class="cls-2" x="1" y="14.15" width="15" height="8.77"/><rect class="cls-2" x="17.98" y="14.15" width="15.02" height="8.77"/><rect class="cls-2" x="1" y="25.12" width="15" height="8.77"/><rect class="cls-2" x="17.98" y="25.12" width="15.02" height="8.77"/><rect class="cls-2" x="17.98" y="3.19" width="15.02" height="8.77"/><rect class="cls-2" x="1" y="3.19" width="15" height="8.77"/><rect class="cls-2" x="17.98" y="36.08" width="15.02" height="8.77"/><rect class="cls-3" x="2" y="2.19" width="15" height="8.77"/><rect class="cls-3" x="18.98" y="2.19" width="15.02" height="8.77"/><rect class="cls-3" x="2" y="13.15" width="15" height="8.77"/><rect class="cls-3" x="18.98" y="13.15" width="15.02" height="8.77"/><rect class="cls-3" x="2" y="24.12" width="15" height="8.77"/><rect class="cls-3" x="18.98" y="24.12" width="15.02" height="8.76"/><rect class="cls-3" x="2" y="35.08" width="15" height="8.77"/><rect class="cls-3" x="18.98" y="35.08" width="15.02" height="8.77"/><rect class="cls-3" x="2" y="46.04" width="15" height="8.77"/><rect class="cls-3" x="18.98" y="46.04" width="15.02" height="8.77"/><rect class="cls-4" x="32" y="2.19" width="2" height="8.77"/><rect class="cls-4" x="32" y="13.15" width="2" height="8.77"/><rect class="cls-4" x="32" y="24.12" width="2" height="8.76"/><rect class="cls-4" x="15" y="24.12" width="2" height="8.76"/><rect class="cls-4" x="32" y="35.08" width="2" height="8.77"/><rect class="cls-4" x="15" y="35.08" width="2" height="8.77"/><rect class="cls-4" x="32" y="46.04" width="2" height="8.77"/><rect class="cls-4" x="15" y="2.19" width="2" height="8.77"/><rect class="cls-4" x="15" y="13.15" width="2" height="8.77"/><line class="cls-4" x1="17" y1="24.12" x2="17" y2="32.88"/><line class="cls-4" x1="17" y1="35.08" x2="17" y2="43.85"/><rect class="cls-4" x="15" y="46.04" width="2" height="8.77"/></g><g id="Слой_3" data-name="Слой 3"><polygon class="cls-5" points="14.87 57 0 57 0 17.6 2.46 24.12 5.77 32.88 6.6 35.08 9.91 43.85 10.73 46.04 14.04 54.81 14.87 57"/><polygon class="cls-6" points="36 0 36 6.13 34 5.38 33 5 25.51 2.19 19.67 0 36 0"/></g></svg>