<svg xmlns="http://www.w3.org/2000/svg" viewBox="0 0 58.51 54.53"><defs><style>.cls-1{fill:#68442a;}.cls-2{fill:#442917;}.cls-3{fill:#3a1f10;}.cls-3,.cls-4{opacity:0.52;}.cls-5{fill:#aa7e44;}.cls-6{fill:#a37d4b;opacity:0.27;}</style></defs><g id="Слой_4" data-name="Слой 4"><path class="cls-1" d="M54.85,47.58C49.47,55.15,42,59.8,35.4,60.47a13,13,0,0,1-9-2.15,13.42,13.42,0,0,1-5.25-9.08c-1-6.31,1-14.27,6-21.36.33-.47.68-.93,1-1.38a32.2,32.2,0,0,1,12.47-9.93c5.47-2.32,11-2.31,15,.57C63.3,22.58,62.94,36.21,54.85,47.58Z" transform="translate(-2.65 -7.24)"/><path class="cls-2" d="M53,23.15a33.83,33.83,0,0,0-13.54,7.58c-2.61,2.54-3.57,7.2-3.77,10.54-.22,3.6-2.09,8.68-7.34,13.93,0,0,10-1.87,14.64-9.61C48,37.13,41.76,36.55,53,23.15Z" transform="translate(-2.65 -7.24)"/><path class="cls-3" d="M42.57,46.22A33.8,33.8,0,0,1,35.4,60.47a13,13,0,0,1-9-2.15,13.42,13.42,0,0,1-5.25-9.08L28.18,26.5a32.2,32.2,0,0,1,12.47-9.93,70,70,0,0,1,2.53,11.14A49.62,49.62,0,0,1,42.57,46.22Z" transform="translate(-2.65 -7.24)"/><g class="cls-4"><path class="cls-5" d="M53.28,19.71a7.21,7.21,0,0,1,1.3.8l-.3-.24a7.51,7.51,0,0,1,1.26,1.26,1,1,0,0,0,.48.31,1.06,1.06,0,0,0,.58.13,1.52,1.52,0,0,0,1.06-.44,1.5,1.5,0,0,0,.44-1.06l-.06-.4a1.57,1.57,0,0,0-.38-.66,7,7,0,0,0-1.18-1.19,8.17,8.17,0,0,0-1.69-1.1,1.12,1.12,0,0,0-.55-.18,1.22,1.22,0,0,0-.6,0,1.5,1.5,0,0,0-1,1.84,1.43,1.43,0,0,0,.69.9Z" transform="translate(-2.65 -7.24)"/></g><g class="cls-4"><path class="cls-5" d="M58.79,27.35a1.5,1.5,0,0,0,0-3,1.5,1.5,0,0,0,0,3Z" transform="translate(-2.65 -7.24)"/></g></g><g id="Слой_3" data-name="Слой 3"><path class="cls-1" d="M32.38,58.76a13.14,13.14,0,0,1-6,2.8C16.35,63.38,6,52.74,3.3,37.8S6.55,9.26,16.6,7.44a12.66,12.66,0,0,1,4.51,0C29.58,8.91,37.4,18.5,39.7,31.2,41.82,42.87,38.65,53.71,32.38,58.76Z" transform="translate(-2.65 -7.24)"/><path class="cls-2" d="M17.25,14.09A36.87,36.87,0,0,0,12.86,30.4c0,4,2.89,8.25,5.34,10.94,2.64,2.91,5.17,8.22,5.27,16.31,0,0,6.17-9.23,3.65-18.71C24.37,28.58,19.16,33,17.25,14.09Z" transform="translate(-2.65 -7.24)"/><path class="cls-6" d="M32.38,58.76C44,30.45,29.46,14.06,21.11,7.44,29.58,8.91,37.4,18.5,39.7,31.2,41.82,42.87,38.65,53.71,32.38,58.76Z" transform="translate(-2.65 -7.24)"/></g></svg>