<?xml version="1.0" encoding="utf-8"?>
<!-- Generator: Adobe Illustrator 24.1.2, SVG Export Plug-In . SVG Version: 6.00 Build 0)  -->
<svg version="1.1" xmlns="http://www.w3.org/2000/svg" xmlns:xlink="http://www.w3.org/1999/xlink" x="0px" y="0px"
	 viewBox="0 0 58.8 57.9" style="enable-background:new 0 0 58.8 57.9;" xml:space="preserve">
<style type="text/css">
	.st0{fill:url(#SVGID_1_);stroke:#A7DCE8;stroke-width:3;stroke-miterlimit:10;}
	.st1{fill:#4B90A0;}
	.st2{fill:#EFEDD3;}
	.st3{fill:#EADAA7;}
	.st4{fill:none;stroke:#EADAA7;stroke-miterlimit:10;}
	.st5{opacity:0.35;fill:#C4B282;}
	.st6{fill:none;stroke:#A7DAEA;stroke-width:3;stroke-miterlimit:10;}
</style>
<g id="Слой_1">
</g>
<g id="Слой_2">
	
		<linearGradient id="SVGID_1_" gradientUnits="userSpaceOnUse" x1="40.1312" y1="34.7164" x2="20.4291" y2="0.5929" gradientTransform="matrix(1 0 0 -1 -2.7 57.14)">
		<stop  offset="0.51" style="stop-color:#8FC6E5"/>
		<stop  offset="0.62" style="stop-color:#78B8D9"/>
		<stop  offset="0.76" style="stop-color:#5EA9CC"/>
		<stop  offset="0.89" style="stop-color:#4EA0C4"/>
		<stop  offset="0.99" style="stop-color:#499DC1"/>
	</linearGradient>
	<path class="st0" d="M2.2,38.5L4,40.7l6.1,7.8v2.1c0.2,7.7,38.6,7.7,38.6,0v-2.2l7.5-9.6C66.5,24.1-6.4,25.2,2.2,38.5z"/>
	<g id="Слой_3_1_">
		<ellipse class="st1" cx="29.5" cy="34.8" rx="25.9" ry="5"/>
		<path class="st2" d="M51.1,39c-0.8,0.8-1.9,1.2-3.1,1.3L39.8,41c-7.1,0.5-15.6,1.3-21,0.4c-0.1,0-0.3,0-0.4-0.1l-2.5-0.2l-4-0.4
			l-0.3,0c-0.7-0.1-1.4-0.3-2.1-0.6C9.4,40,9.3,40,9.2,39.9c-0.1-0.1-0.2-0.1-0.3-0.2c-1.7-1.1-2.5-2.2-2.2-3.3
			c0.1-0.2,0.2-0.4,0.3-0.6l0.4-0.6l2.5-3.4l0.8-1.1l0.5-0.6l0.8-1l1.9-2.6c0,0,0,0,0,0c0,0,0,0,0,0c0,0,0,0,0,0
			c0.1-0.1,0.2-0.3,0.3-0.5c0.2-0.3,0.5-0.7,0.8-1.1c1.4-2,3.6-5.3,3.7-5.4l1.1-1.4l0.8-1l1.8-2.3c1-1.2,2.3-2.1,3.8-2.6
			c3.5-1.1,7.8-0.2,10,2.6l4.4,5.1c0.1,0.1,3.4,4.6,4.5,6.3l6.2,9.2C52.3,36.6,52.4,37.8,51.1,39z"/>
		<g id="Слой_4">
			<circle class="st3" cx="26.5" cy="14.1" r="0.6"/>
			<circle class="st4" cx="22.3" cy="19.8" r="0.6"/>
			<circle class="st4" cx="36.1" cy="22.5" r="0.6"/>
			<circle class="st3" cx="31.8" cy="32.6" r="0.6"/>
			<circle class="st3" cx="45.1" cy="35.8" r="0.6"/>
			<path class="st4" d="M36.7,21.3"/>
			<circle class="st3" cx="26.5" cy="21.9" r="0.6"/>
			<circle class="st3" cx="21.7" cy="24.3" r="0.6"/>
			<circle class="st3" cx="16.6" cy="28.2" r="0.6"/>
			<circle class="st3" cx="33.1" cy="25.5" r="0.6"/>
			<circle class="st3" cx="42" cy="27.6" r="0.6"/>
			<circle class="st3" cx="20" cy="35.2" r="0.6"/>
			<circle class="st3" cx="13.6" cy="34.6" r="0.6"/>
			<path class="st2" d="M11.2,31.4c0,0.4-0.3,0.7-0.7,0.7c-0.2,0-0.4-0.1-0.5-0.2c-0.1-0.1-0.2-0.3-0.2-0.5c0-0.4,0.3-0.7,0.7-0.7
				c0.1,0,0.2,0,0.3,0.1C11,30.9,11.2,31.2,11.2,31.4z"/>
			<path class="st2" d="M15.6,25.6c0,0.4-0.3,0.7-0.7,0.7c-0.2,0-0.4-0.1-0.5-0.2c-0.1-0.1-0.2-0.3-0.2-0.5c0-0.4,0.3-0.7,0.7-0.7
				c0.1,0,0.2,0,0.2,0C15.4,25,15.6,25.3,15.6,25.6z"/>
			<path class="st2" d="M12.6,29.9c0,0.4-0.3,0.7-0.7,0.7c-0.3,0-0.5-0.1-0.6-0.4c-0.1-0.1-0.1-0.2-0.1-0.3c0-0.4,0.3-0.7,0.7-0.7
				c0.1,0,0.1,0,0.2,0C12.4,29.2,12.6,29.5,12.6,29.9z"/>
			<path class="st2" d="M21.3,17.7c0,0.4-0.3,0.7-0.7,0.7c-0.3,0-0.5-0.1-0.6-0.4c-0.1-0.1-0.1-0.2-0.1-0.3c0-0.4,0.3-0.7,0.7-0.7
				c0.1,0,0.1,0,0.2,0C21,17.2,21.3,17.4,21.3,17.7z"/>
			<path class="st2" d="M7.8,35.8c0,0.4-0.3,0.7-0.7,0.7c-0.1,0-0.2,0-0.3-0.1c-0.2-0.1-0.4-0.3-0.4-0.6c0-0.4,0.3-0.7,0.7-0.7
				c0.2,0,0.3,0,0.4,0.1C7.7,35.4,7.8,35.6,7.8,35.8z"/>
			<path class="st5" d="M26.4,12.2C22,18.4,18,30.8,15.9,41.1v0l-4-0.4l-0.3,0c-0.7-0.1-1.4-0.3-2.1-0.6C9.4,40,9.3,40,9.2,39.9
				c-0.1-0.1-0.2-0.1-0.3-0.2c-1.7-1.1-2.5-2.2-2.2-3.3c-0.2-0.1-0.4-0.3-0.4-0.6c0-0.4,0.3-0.7,0.7-0.7c0.2,0,0.3,0,0.4,0.1
				l2.5-3.4c-0.1-0.1-0.2-0.3-0.2-0.5c0-0.4,0.3-0.7,0.7-0.7c0.1,0,0.2,0,0.3,0.1l0.5-0.6c-0.1-0.1-0.1-0.2-0.1-0.3
				c0-0.4,0.3-0.7,0.7-0.7c0.1,0,0.1,0,0.2,0l1.9-2.6c0,0,0,0,0,0c0,0,0,0,0,0c0,0,0,0,0,0c0.1-0.1,0.2-0.3,0.3-0.5
				c-0.1-0.1-0.2-0.3-0.2-0.5c0-0.4,0.3-0.7,0.7-0.7c0.1,0,0.2,0,0.2,0c1.4-2,3.6-5.3,3.7-5.4l1.1-1.4c-0.1-0.1-0.1-0.2-0.1-0.3
				c0-0.4,0.3-0.7,0.7-0.7c0.1,0,0.1,0,0.2,0l1.8-2.3C23.5,13.6,24.9,12.7,26.4,12.2z"/>
		</g>
		<path class="st6" d="M57,35.2c-0.8,3.1-10.8,5.7-27.4,5.7c-17.3,0-26.3-2.4-27.6-5.3"/>
	</g>
</g>
<g id="Слой_5">
	<circle class="st2" cx="18.7" cy="30.7" r="0.7"/>
	<circle class="st2" cx="18" cy="33.2" r="0.7"/>
	<circle class="st2" cx="22.9" cy="16.8" r="0.7"/>
	<circle class="st2" cx="17.3" cy="37" r="0.7"/>
	<circle class="st2" cx="42.6" cy="22.5" r="0.7"/>
	<circle class="st2" cx="33.7" cy="12.9" r="0.7"/>
	<circle class="st2" cx="30.5" cy="11.8" r="0.7"/>
	<circle class="st2" cx="14.9" cy="37.7" r="0.7"/>
	<circle class="st2" cx="24.6" cy="15.4" r="0.7"/>
	<circle class="st2" cx="20.6" cy="25.6" r="0.7"/>
</g>
</svg>
