<svg xmlns="http://www.w3.org/2000/svg" viewBox="0 0 53.77 50.31"><defs><style>.cls-1{fill:#eaeae8;}.cls-2{fill:#ced0d8;}.cls-3{fill:#62b26a;}.cls-4{fill:#5fd661;}.cls-5{fill:#f4f4f4;}.cls-6{fill:#bcbcbc;opacity:0.45;}.cls-7{fill:#419141;opacity:0.42;}.cls-8{fill:#ddd;opacity:0.49;}</style></defs><g id="Слой_4" data-name="Слой 4"><path class="cls-1" d="M55,32H9s-.71-1.67,1.23-5c.23-.4.49-.82.8-1.26.18-.25.37-.51.58-.77a44.08,44.08,0,0,1,8.52-8l.89-.67q1.8-1.32,4-2.75l.79-.52c1-.66,2.08-1.33,3.21-2a10.88,10.88,0,0,1,1.89-1c1.74-.66,3.18-.42,5.11,1C40.49,14.23,55,23,55,32Z" transform="translate(-5.33 -9.69)"/><rect class="cls-2" x="35" y="17" width="1" height="1" transform="matrix(0.83, 0.56, -0.56, 0.83, 10.63, -26.61)"/><polygon class="cls-1" points="15.72 6.37 15.69 6.6 15.61 7.36 14.8 7.27 14.62 7.25 14.73 6.26 15.72 6.37"/><rect class="cls-1" x="42" y="15" width="1" height="1" transform="translate(46 -38.56) rotate(81.21)"/><rect class="cls-1" x="50" y="22" width="1" height="1" transform="translate(-2.59 -15.04) rotate(6.24)"/><polygon class="cls-1" points="20.7 3.34 20.64 4.34 19.64 4.28 19.67 3.85 19.7 3.28 20.46 3.33 20.7 3.34"/><polygon class="cls-1" points="6.75 16.22 5.76 16.39 5.7 16.05 5.59 15.4 6.28 15.28 6.58 15.23 6.75 16.22"/><rect class="cls-2" x="39" y="18" width="1" height="1" transform="matrix(0.83, 0.56, -0.56, 0.83, 11.88, -28.68)"/><rect class="cls-2" x="44" y="22" width="1" height="1" transform="matrix(0.83, 0.56, -0.56, 0.83, 14.99, -30.8)"/><rect class="cls-2" x="37" y="23" width="1" height="1" transform="matrix(0.83, 0.56, -0.56, 0.83, 14.35, -26.7)"/><rect class="cls-2" x="33" y="13" width="1" height="1" transform="matrix(0.83, 0.56, -0.56, 0.83, 8.04, -26.18)"/><rect class="cls-2" x="33" y="21" width="1" height="1" transform="matrix(0.83, 0.56, -0.56, 0.83, 12.53, -24.79)"/></g><g id="Слой_3" data-name="Слой 3"><path class="cls-3" d="M56.33,56.55a.86.86,0,0,0,0,1l.78,1.17A.86.86,0,0,1,56.4,60H7.6a.86.86,0,0,1-.71-1.33l.79-1.19a.86.86,0,0,0,0-.95c-3.9-5.9-2-16.93-.68-22.74.41-1.75.78-3,.93-3.54a.81.81,0,0,0,0-.51l-.53-1.61A.86.86,0,0,1,8.19,27H55.81a.86.86,0,0,1,.81,1.13l-.53,1.59a.89.89,0,0,0,0,.56c.51,1.41.95,2.76,1.31,4C60,43.36,59.17,49.44,58,53A14,14,0,0,1,56.33,56.55Z" transform="translate(-5.33 -9.69)"/><path class="cls-4" d="M57.4,33.07a3.8,3.8,0,0,0,0,1.26H55.33l-40.54,0H7c0-.16,0-.31,0-.48a5,5,0,0,0,0-.67l-.56-3.6c-.2-1.24.24-2.52.85-2.52H57.1c.61,0,1,1.28.85,2.52Z" transform="translate(-5.33 -9.69)"/></g><g id="Слой_5" data-name="Слой 5"><path class="cls-5" d="M23,50.46a2.47,2.47,0,0,1-1-1A3,3,0,0,1,21.7,48v-.1l1.84,0V48a1.07,1.07,0,0,0,.26.77.92.92,0,0,0,.71.28.93.93,0,0,0,.71-.27,1,1,0,0,0,.26-.71.88.88,0,0,0-.17-.55,1.31,1.31,0,0,0-.42-.35c-.17-.09-.41-.19-.72-.32l-.11,0a.43.43,0,0,1-.12-.05h0l0,0a5.21,5.21,0,0,1-1-.54,2.52,2.52,0,0,1-.72-.82,2.74,2.74,0,0,1-.29-1.32,3,3,0,0,1,.33-1.42,2.25,2.25,0,0,1,.92-.94,2.65,2.65,0,0,1,1.37-.34,3,3,0,0,1,1.4.32,2.19,2.19,0,0,1,.91.9A2.83,2.83,0,0,1,27.07,44v.11l-1.84,0V44a.93.93,0,0,0-.21-.64.73.73,0,0,0-.58-.24.7.7,0,0,0-.57.26,1.06,1.06,0,0,0-.21.7,1,1,0,0,0,.17.59,1.29,1.29,0,0,0,.44.36,5.75,5.75,0,0,0,.72.28l0,0h.1a6.14,6.14,0,0,1,1.13.49,2.26,2.26,0,0,1,.76.8,3.37,3.37,0,0,1,0,2.89,2.39,2.39,0,0,1-1,.95,3.29,3.29,0,0,1-1.48.32A3,3,0,0,1,23,50.46Z" transform="translate(-5.33 -9.69)"/><path class="cls-5" d="M29.06,50.15a2.89,2.89,0,0,1-.56-1.93A3.12,3.12,0,0,1,29.25,46a2.88,2.88,0,0,1,2.17-.76h.93l.13,1.61h-1a1,1,0,0,0-.86.36,1.67,1.67,0,0,0-.29,1.06,1,1,0,0,0,.22.7.83.83,0,0,0,.65.23,1.07,1.07,0,0,0,.82-.3A1.22,1.22,0,0,0,32.3,48l.17.8a2.82,2.82,0,0,1-.22,1.12,1.51,1.51,0,0,1-.6.69,2,2,0,0,1-1,.22A2,2,0,0,1,29.06,50.15Zm3.24-6.09a.92.92,0,0,0-.25-.7.9.9,0,0,0-.69-.25.73.73,0,0,0-.6.25,1.1,1.1,0,0,0-.22.7H28.69a2.66,2.66,0,0,1,.71-2,2.71,2.71,0,0,1,2-.7,3.38,3.38,0,0,1,1.49.31,2.2,2.2,0,0,1,.94.92,3,3,0,0,1,.32,1.44v6.61H32.3Z" transform="translate(-5.33 -9.69)"/><path class="cls-5" d="M37.91,48.08a.79.79,0,0,0,.16.54.56.56,0,0,0,.46.19h.39v1.86h-.76A2.06,2.06,0,0,1,36.55,50,2.58,2.58,0,0,1,36,48.26V37.89h1.94Z" transform="translate(-5.33 -9.69)"/><path class="cls-5" d="M39.43,41.55h4v1.79h-4Zm1.41,8.56a2.65,2.65,0,0,1-.54-1.81V38.9h1.91v9.22a.87.87,0,0,0,.16.54.55.55,0,0,0,.45.19h.65v1.87h-.91A2.23,2.23,0,0,1,40.84,50.11Z" transform="translate(-5.33 -9.69)"/></g><g id="Слой_6" data-name="Слой 6"><path class="cls-6" d="M23.21,27h-13c.23-.4.49-.82.8-1.26l-.11-.65.69-.12a44.08,44.08,0,0,1,8.52-8l-.18,0,.11-1,1,.11,0,.23q1.8-1.32,4-2.75L25,13l.76,0c1-.66,2.08-1.33,3.21-2a10.88,10.88,0,0,1,1.89-1C27.24,13.76,20.39,21.77,23.21,27Z" transform="translate(-5.33 -9.69)"/><rect class="cls-1" x="20" y="20" width="1" height="1" transform="translate(44.16 10.81) rotate(135)"/><rect class="cls-1" x="26" y="15" width="1" height="1" transform="matrix(-1, 0.08, -0.08, -1, 48.8, 19.2)"/><rect class="cls-1" x="22" y="23" width="1" height="1" transform="translate(21.02 -18.49) rotate(50.55)"/><rect class="cls-1" x="17" y="24" width="1" height="1" transform="translate(42.27 14.1) rotate(124.18)"/><path class="cls-7" d="M21,60H7.6a.86.86,0,0,1-.71-1.33l.79-1.19a.86.86,0,0,0,0-.95c-3.9-5.9-2-16.93-.68-22.74a5,5,0,0,0,0-.67l-.56-3.6c-.2-1.24.24-2.52.85-2.52h7.39S11,31,15,34l-.21.28C13.26,36.36,4.36,49.64,20,57,20,57,18,59,21,60Z" transform="translate(-5.33 -9.69)"/></g><g id="Слой_8" data-name="Слой 8"><path class="cls-8" d="M58,53,55.33,34.33l-1-7.33H57.1c.61,0,1,1.28.85,2.52l-.55,3.55a3.8,3.8,0,0,0,0,1.26C60,43.36,59.17,49.44,58,53Z" transform="translate(-5.33 -9.69)"/></g></svg>