<svg xmlns="http://www.w3.org/2000/svg" viewBox="0 0 54.75 38.96"><defs><style>.cls-1{fill:#eaeae8;}.cls-2{fill:#ced0d8;}.cls-3{fill:#bcbcbc;}.cls-11,.cls-3{opacity:0.45;}.cls-4{fill:none;stroke:#895a33;stroke-miterlimit:10;stroke-width:2px;}.cls-5{fill:#ffd939;}.cls-6{fill:#ed9f58;}.cls-7{fill:#d3a062;}.cls-8{opacity:0.69;}.cls-9{fill:#fff5ca;}.cls-10,.cls-11{fill:#cea73a;}.cls-10{opacity:0.38;}</style></defs><g id="Слой_2" data-name="Слой 2"><path class="cls-1" d="M59,49.06H4.4s-.84-2.55,1.46-7.64c.26-.57.56-1.19.91-1.83a.3.3,0,0,0,0-.08c.22-.39.44-.78.69-1.18A61.32,61.32,0,0,1,17.61,26.1l1.06-1c1.42-1.34,3-2.74,4.72-4.2l.94-.8c1.2-1,2.47-2,3.81-3.07a12,12,0,0,1,2.24-1.47c2.07-1,3.78-.64,6.07,1.47C41.78,21.93,59,35.32,59,49.06Z" transform="translate(-4.25 -15)"/><polygon class="cls-2" points="31.76 12.99 30.78 12.13 31.44 10.87 32.43 11.72 31.76 12.99"/><polygon class="cls-1" points="14.45 9.73 14.41 10.08 14.32 11.24 13.36 11.1 13.14 11.07 13.28 9.56 14.45 9.73"/><polygon class="cls-1" points="39.41 9.74 39.23 8.23 40.41 8 40.59 9.51 39.41 9.74"/><polygon class="cls-1" points="49.93 20.4 48.75 20.23 48.88 18.72 50.06 18.88 49.93 20.4"/><polygon class="cls-1" points="20.36 5.1 20.29 6.63 19.1 6.54 19.14 5.88 19.18 5.01 20.08 5.09 20.36 5.1"/><polygon class="cls-1" points="3.81 24.77 2.63 25.02 2.56 24.5 2.43 23.51 3.25 23.33 3.6 23.25 3.81 24.77"/><polygon class="cls-2" points="36.51 14.51 35.52 13.66 36.19 12.39 37.17 13.25 36.51 14.51"/><polygon class="cls-2" points="42.44 20.62 41.46 19.76 42.13 18.5 43.11 19.36 42.44 20.62"/><polygon class="cls-2" points="34.13 22.15 33.15 21.29 33.82 20.03 34.8 20.88 34.13 22.15"/><polygon class="cls-2" points="29.39 6.88 28.4 6.02 29.07 4.76 30.05 5.62 29.39 6.88"/><polygon class="cls-2" points="29.39 19.09 28.4 18.23 29.07 16.97 30.05 17.83 29.39 19.09"/><polygon class="cls-2" points="20.39 22.09 19.4 21.23 20.07 19.97 21.05 20.83 20.39 22.09"/><polygon class="cls-2" points="18.39 29.09 17.4 28.23 18.07 26.97 19.05 27.83 18.39 29.09"/><polygon class="cls-2" points="48.38 32.09 47.4 31.23 48.07 29.97 49.05 30.83 48.38 32.09"/><path class="cls-3" d="M18.2,49H4.4s-.84-2.55,1.46-7.64c.26-.57.56-1.19.91-1.83l0-.08-.13-1,.82-.18A61.61,61.61,0,0,1,17.61,26l-.21,0,.13-1.51,1.18.17,0,.34c1.42-1.33,3-2.73,4.72-4.19l0-.88.9.08c1.2-1,2.47-2,3.81-3.08a12.43,12.43,0,0,1,2.24-1.46C25.32,21.49,14.63,41.14,18.2,49Z" transform="translate(-4.25 -15)"/><polygon class="cls-1" points="12.96 16.51 13.8 15.43 14.64 16.51 13.8 17.59 12.96 16.51"/><polygon class="cls-1" points="20.28 8.17 21.46 8.05 21.56 9.57 20.37 9.69 20.28 8.17"/><polygon class="cls-1" points="16.09 22.16 15.34 20.98 16.25 20.01 17.01 21.19 16.09 22.16"/><polygon class="cls-1" points="9.41 21.82 10.08 20.55 11.06 21.41 10.39 22.67 9.41 21.82"/><polygon class="cls-1" points="6.41 27.82 7.08 26.55 8.06 27.41 7.39 28.67 6.41 27.82"/></g><g id="Слой_1" data-name="Слой 1"><path class="cls-4" d="M23.57,49,53.91,37.84l1.42-.49A2.51,2.51,0,0,0,56.84,36c1.64-3.56-1.45-5.57-5.48-4.18" transform="translate(-4.25 -15)"/><line class="cls-4" x1="50.39" y1="25.66" x2="16.82" y2="38.02"/><path class="cls-5" d="M40.29,42.33a2.16,2.16,0,0,1-.18,1.13c-.53,1.22-1.65,1.56-3.57,1.4-.5,0-1.14-.08-1.79-.18a6.17,6.17,0,0,1-.62-.11,5.27,5.27,0,0,1-1.24-.37A9,9,0,0,1,30,41.87c-1.28-1.59-2.28-2.75-2.56-3.18S26.18,37.17,28,37h.15l4-.19a6.61,6.61,0,0,1,3.65.66,12.33,12.33,0,0,1,2.93,2.33A4.25,4.25,0,0,1,40.29,42.33Z" transform="translate(-4.25 -15)"/><path class="cls-5" d="M41.1,47A12.32,12.32,0,0,1,39,50a9,9,0,0,1-3.32,1.69c-2,.49-3.41.91-3.91,1a2.93,2.93,0,0,1-.74.07c-.49,0-.92-.28-.42-1.47.21-.51,1.23-3,1.57-3.79a7,7,0,0,1,2-3l.15-.13a5.78,5.78,0,0,1,1.17-.77,23,23,0,0,1,2.15-.92,4.52,4.52,0,0,1,2.69-.42,2.11,2.11,0,0,1,1.11.73C42.25,44.08,42.08,45.25,41.1,47Z" transform="translate(-4.25 -15)"/><path class="cls-5" d="M49.54,52.9a.66.66,0,0,1-.35.12,2.3,2.3,0,0,1-.85-.12l-3.86-1.16a6.85,6.85,0,0,1-3.25-1.83,6.78,6.78,0,0,1-1-1.38c-.39-.63-.71-1.3-1-1.8-.9-1.74-1-2.93-.14-3.9s2-.94,3.81-.15a12.13,12.13,0,0,1,3.25,1.84,9.18,9.18,0,0,1,2,3.18c.71,1.92,1.28,3.36,1.41,3.85a3.68,3.68,0,0,1,.12.48A.84.84,0,0,1,49.54,52.9Z" transform="translate(-4.25 -15)"/><path class="cls-5" d="M46.26,44.19a12,12,0,0,1-3.64.74c-1.91.2-3-.12-3.59-1.32s-.09-2.3,1.29-3.68a12.2,12.2,0,0,1,2.87-2.4,8.94,8.94,0,0,1,3.64-.74c2,.05,3.52,0,4,.1s2,0,.77,1.66l-2.49,3.24A6.85,6.85,0,0,1,46.26,44.19Z" transform="translate(-4.25 -15)"/><path class="cls-5" d="M43.13,37.7a12.26,12.26,0,0,1-.9,3.68c-.63,1.86-1.39,2.76-2.7,2.76s-2.06-.9-2.69-2.76a12.65,12.65,0,0,1-.9-3.68,9.4,9.4,0,0,1,.9-3.68c.9-1.84,1.53-3.24,1.8-3.68s.89-1.84,1.79,0L42.23,34A7.08,7.08,0,0,1,43.13,37.7Z" transform="translate(-4.25 -15)"/><path class="cls-6" d="M40.17,41.09a6.39,6.39,0,0,1,1.3,1.42c.61.79-.48.65-.82,1.24s.35,1.43-.6,1.21a5.8,5.8,0,0,1-1.77-.6A4.79,4.79,0,0,1,37,43c-.53-.91-.95-1.58-1.06-1.82s-.54-.91.47-.82l2,.19A3.25,3.25,0,0,1,40.17,41.09Z" transform="translate(-4.25 -15)"/><path class="cls-6" d="M37.75,41.44a6.24,6.24,0,0,1,1.53-1.12c.84-.49.65.75,1.14,1.21s1.25-.24.88.71A6.6,6.6,0,0,1,40.44,44a4.59,4.59,0,0,1-1.53,1.11c-.94.4-1.63.72-1.87.8s-.94.4-.68-.64l.53-2.07A3.7,3.7,0,0,1,37.75,41.44Z" transform="translate(-4.25 -15)"/><path class="cls-6" d="M38.49,44.2a6.43,6.43,0,0,1-1-1.66c-.45-.9.32-.84.76-1.34s.2-1.18,1.08-.76a6,6,0,0,1,1.63,1,4.7,4.7,0,0,1,1,1.66c.36,1,.64,1.75.71,2s.35,1-.61.7l-1.94-.61A3.32,3.32,0,0,1,38.49,44.2Z" transform="translate(-4.25 -15)"/><path class="cls-6" d="M40.64,44.35a5.6,5.6,0,0,1-1.77.62c-.94.24-.28-1.27-.63-1.86s-1.42.24-.82-.57a6.38,6.38,0,0,1,1.29-1.43,4.49,4.49,0,0,1,1.76-.62c1-.11,1.76-.21,2-.21s1-.11.48.81l-1,1.83A3.46,3.46,0,0,1,40.64,44.35Z" transform="translate(-4.25 -15)"/><path class="cls-6" d="M41.25,42.32a6.68,6.68,0,0,1-.45,1.91c-.32,1-.7.16-1.35.16s-1,.81-1.36-.16a6.94,6.94,0,0,1-.45-1.91,5.16,5.16,0,0,1,.45-1.92c.45-1,.77-1.69.91-1.92s.45-1,.9,0l.9,1.92A3.83,3.83,0,0,1,41.25,42.32Z" transform="translate(-4.25 -15)"/><ellipse class="cls-7" cx="35.28" cy="27.6" rx="2.4" ry="2.45"/><g class="cls-8"><path class="cls-9" d="M47.67,39.49a1.13,1.13,0,0,0,0-2.25,1.13,1.13,0,0,0,0,2.25Z" transform="translate(-4.25 -15)"/></g><g class="cls-8"><path class="cls-9" d="M45.22,40.24a1.13,1.13,0,0,0,0-2.25,1.13,1.13,0,0,0,0,2.25Z" transform="translate(-4.25 -15)"/></g><g class="cls-8"><path class="cls-9" d="M45.68,48.5a1.13,1.13,0,0,0,0-2.25,1.13,1.13,0,0,0,0,2.25Z" transform="translate(-4.25 -15)"/></g><g class="cls-8"><path class="cls-9" d="M41.33,36.88a1.13,1.13,0,0,0,0-2.25,1.13,1.13,0,0,0,0,2.25Z" transform="translate(-4.25 -15)"/></g><path class="cls-10" d="M35.45,43.67s-.28.38-.7,1c-1.13,1.69-3.28,5.19-3.77,8.11-.49,0-.92-.28-.42-1.47.21-.51,1.23-3,1.57-3.79a7,7,0,0,1,2-3,5.27,5.27,0,0,1-1.24-.37A9,9,0,0,1,30,41.87c-1.28-1.59-2.28-2.75-2.56-3.18S26.18,37.17,28,37C29.28,39.3,31.79,42.8,35.45,43.67Z" transform="translate(-4.25 -15)"/><path class="cls-11" d="M49.68,52c-2.6-.17-6.71-1.1-8.68-5l-.82,1.53a6.78,6.78,0,0,0,1,1.38,6.85,6.85,0,0,0,3.25,1.83l3.86,1.16a2.3,2.3,0,0,0,.85.12l.35-.12Z" transform="translate(-4.25 -15)"/></g></svg>