<svg xmlns="http://www.w3.org/2000/svg" viewBox="0 0 52.86 56.98"><defs><style>.cls-1{fill:#edcd74;}.cls-2{fill:#b28256;}.cls-3{fill:#ead9a2;stroke:#b28256;stroke-miterlimit:10;}.cls-4{fill:#f4e6bd;}.cls-5{fill:#e59e6e;}.cls-6{fill:#eab049;}.cls-7{fill:#c45630;}.cls-8{fill:#a36b45;opacity:0.48;}.cls-9{opacity:0.72;}.cls-10{fill:#ffecbb;}</style></defs><g id="Слой_2" data-name="Слой 2"><path class="cls-1" d="M39.3,41.44a4.44,4.44,0,0,1-1.59-.29l-.11,0a4.7,4.7,0,0,1-2.28-2l-.15-.24h0C33.68,36.21,33.8,32,35.5,28A16.79,16.79,0,0,1,38,23.82c.24-.3.49-.56.74-.82a10,10,0,0,1,1.08-1,8,8,0,0,1,5-2.11,4.81,4.81,0,0,1,1.74.33,5.15,5.15,0,0,1,2.78,3c1.12,2.71.86,6.5-.69,10.12-1.82,4.28-5.19,7.51-8.38,8.06A5.56,5.56,0,0,1,39.3,41.44Z" transform="translate(-6.07 -4)"/><path class="cls-2" d="M44.82,20.38h0a4.09,4.09,0,0,1,1.56.3,4.6,4.6,0,0,1,2.49,2.68c1.08,2.59.82,6.23-.68,9.74-1.76,4.12-5,7.24-8,7.76a5.31,5.31,0,0,1-.87.08,4.1,4.1,0,0,1-1.41-.25l-.08,0h0a4.17,4.17,0,0,1-2-1.8l-.16-.25c-1.4-2.53-1.27-6.56.37-10.38a16.66,16.66,0,0,1,2.48-4.1c.23-.28.48-.55.71-.78a10.26,10.26,0,0,1,1-1,7.56,7.56,0,0,1,4.64-2m0-1a8.49,8.49,0,0,0-5.28,2.22,12.23,12.23,0,0,0-1.12,1c-.26.27-.52.55-.76.85A17.46,17.46,0,0,0,35,27.83c-1.88,4.39-1.83,8.84-.16,11.54h0a5.25,5.25,0,0,0,2.52,2.21l.12,0a4.86,4.86,0,0,0,1.77.32,5.33,5.33,0,0,0,1.05-.1c3.28-.56,6.8-3.76,8.76-8.35,2.58-6,1.53-12.18-2.36-13.74a5.06,5.06,0,0,0-1.93-.37Z" transform="translate(-6.07 -4)"/><path class="cls-1" d="M36.5,23.2c-2,0-4.39-1.85-5.81-4.51-1.55-2.9-1.61-6.05-.16-7.48a2.17,2.17,0,0,1,.67-.51,2.77,2.77,0,0,1,1.25-.29c1.55,0,3.38,1.13,4.78,2.94a10,10,0,0,1,1,1.53c1.26,2.35,1.58,4.83.85,6.52a2.83,2.83,0,0,1-.64,1,2.75,2.75,0,0,1-.7.53,1.89,1.89,0,0,1-.21.09A2.87,2.87,0,0,1,36.5,23.2Z" transform="translate(-6.07 -4)"/><path class="cls-2" d="M32.45,10.91h0c1.4,0,3.08,1.05,4.39,2.74a11.06,11.06,0,0,1,.94,1.44.31.31,0,0,0,0,.1c1.13,2.13,1.44,4.49.78,6a2.43,2.43,0,0,1-.54.84,2.19,2.19,0,0,1-.55.41l-.12.06h-.09a2.16,2.16,0,0,1-.81.14c-1.82,0-4-1.74-5.37-4.24-1.42-2.67-1.53-5.63-.21-6.93a1.65,1.65,0,0,1,.51-.39,2.28,2.28,0,0,1,1-.23m0-1a3.21,3.21,0,0,0-1.47.34,2.76,2.76,0,0,0-.8.6c-1.59,1.57-1.61,4.93.07,8.08,1.56,2.91,4.1,4.77,6.25,4.77a3.26,3.26,0,0,0,1.16-.2,1.69,1.69,0,0,0,.31-.13,3.08,3.08,0,0,0,.82-.61,3.32,3.32,0,0,0,.75-1.16c.76-1.77.5-4.4-.84-6.91l0,0a11.28,11.28,0,0,0-1-1.6c-1.51-1.95-3.47-3.13-5.18-3.13Z" transform="translate(-6.07 -4)"/><ellipse class="cls-3" cx="11.97" cy="19.19" rx="2.16" ry="3.85" transform="translate(-13.88 4.22) rotate(-29.02)"/><path class="cls-1" d="M45.88,52.11a3.14,3.14,0,0,1-2.25-.8,2.88,2.88,0,0,1-.82-2.16,8.54,8.54,0,0,1,2.84-5.61,9,9,0,0,1,5.8-2.75,3.13,3.13,0,0,1,2.25.79,3,3,0,0,1,.82,2.16,8.49,8.49,0,0,1-2.84,5.61,9,9,0,0,1-5.8,2.76Z" transform="translate(-6.07 -4)"/><path class="cls-2" d="M51.45,41.29a2.7,2.7,0,0,1,1.9.65,2.41,2.41,0,0,1,.67,1.8A8,8,0,0,1,51.33,49a8.47,8.47,0,0,1-5.45,2.62A2.75,2.75,0,0,1,44,51a2.42,2.42,0,0,1-.66-1.8A8,8,0,0,1,46,43.9a8.55,8.55,0,0,1,5.46-2.61m0-1a9.41,9.41,0,0,0-6.15,2.89c-3,2.89-3.88,6.69-2,8.49a3.6,3.6,0,0,0,2.6.94A9.42,9.42,0,0,0,52,49.71c3-2.88,3.88-6.68,2-8.48a3.6,3.6,0,0,0-2.6-.94Z" transform="translate(-6.07 -4)"/><path class="cls-1" d="M13.58,25.33c-2,0-4.39-1.86-5.81-4.52a8.33,8.33,0,0,1-1-6.14,3,3,0,0,1,1.47-1.85,2.7,2.7,0,0,1,1.08-.28h.18c2,0,4.39,1.86,5.81,4.52,1.62,3,1.6,6.33,0,7.66a1.79,1.79,0,0,1-.48.33A2.77,2.77,0,0,1,13.58,25.33Z" transform="translate(-6.07 -4)"/><path class="cls-2" d="M9.54,13c1.82,0,4,1.75,5.37,4.25,1.48,2.78,1.52,5.88.06,7.07a1.85,1.85,0,0,1-.37.25,2.25,2.25,0,0,1-1,.23c-1.83,0-4-1.75-5.37-4.25a8,8,0,0,1-.92-5.76,2.5,2.5,0,0,1,1.22-1.56A2.16,2.16,0,0,1,9.39,13h.15m0-1h-.2a3.15,3.15,0,0,0-1.28.33c-2.34,1.17-2.66,5.05-.73,8.68,1.56,2.92,4.1,4.78,6.25,4.78a3.21,3.21,0,0,0,1.47-.34,2.46,2.46,0,0,0,.58-.39c1.8-1.47,1.92-5,.16-8.29C14.23,13.89,11.69,12,9.54,12Z" transform="translate(-6.07 -4)"/><path class="cls-1" d="M40.21,14.65a2,2,0,0,1-.86-.18,2.32,2.32,0,0,1-1.19-1.39,6.58,6.58,0,0,1,.57-4.85C39.79,6,41.64,4.5,43.24,4.5a2,2,0,0,1,.86.18,2.29,2.29,0,0,1,1.19,1.39,6.56,6.56,0,0,1-.57,4.86c-1.06,2.19-2.91,3.72-4.51,3.72Z" transform="translate(-6.07 -4)"/><path class="cls-2" d="M43.24,5a1.63,1.63,0,0,1,.66.14,1.81,1.81,0,0,1,.92,1.1,6.14,6.14,0,0,1-.55,4.47c-1.09,2.26-2.87,3.44-4.05,3.44a1.63,1.63,0,0,1-.67-.13,1.83,1.83,0,0,1-.92-1.11,6.16,6.16,0,0,1,.55-4.46C40.27,6.18,42.05,5,43.24,5m0-1c-1.75,0-3.79,1.58-5,4-1.43,3-1,6.05.86,6.92a2.64,2.64,0,0,0,1.08.22c1.74,0,3.78-1.57,5-4,1.43-3,1-6.05-.86-6.91A2.48,2.48,0,0,0,43.24,4Z" transform="translate(-6.07 -4)"/><path class="cls-1" d="M20.57,23.12a2.12,2.12,0,0,1-.87-.18,2.31,2.31,0,0,1-1.18-1.39,6.52,6.52,0,0,1,.56-4.85C20.14,14.5,22,13,23.59,13a2.12,2.12,0,0,1,.87.18,2.31,2.31,0,0,1,1.18,1.39,6.52,6.52,0,0,1-.56,4.85c-1.06,2.2-2.92,3.73-4.51,3.73Z" transform="translate(-6.07 -4)"/><path class="cls-2" d="M23.59,13.47a1.59,1.59,0,0,1,.66.13,1.77,1.77,0,0,1,.92,1.11,6.13,6.13,0,0,1-.54,4.47c-1.09,2.26-2.87,3.44-4.06,3.44a1.59,1.59,0,0,1-.66-.13A1.83,1.83,0,0,1,19,21.38a6.13,6.13,0,0,1,.54-4.47c1.1-2.26,2.87-3.44,4.06-3.44m0-1c-1.75,0-3.78,1.58-5,4-1.43,2.95-1,6.05.87,6.92a2.6,2.6,0,0,0,1.07.22c1.75,0,3.78-1.58,5-4,1.43-2.95,1-6-.86-6.92a2.64,2.64,0,0,0-1.08-.22Z" transform="translate(-6.07 -4)"/><path class="cls-1" d="M37,60.48c-3.68,0-8-2.8-11-7.13a19.71,19.71,0,0,1-2.2-4.17l-.18-.51h0c-1.28-3.69-1.08-7.11.53-9.16a5,5,0,0,1,1.21-1.12l.26-.16.09,0a4.79,4.79,0,0,1,1.17-.45,6,6,0,0,1,1.55-.19A10.77,10.77,0,0,1,34,39.39c.2.12.38.24.57.38l.13.1h0A18,18,0,0,1,37.17,42a1.42,1.42,0,0,1,.18.19,19.69,19.69,0,0,1,2,2.51,19.46,19.46,0,0,1,2.41,4.71l0,.09c.17.51.33,1.05.49,1.7v0c.82,3.83,0,7-2.28,8.43a5.08,5.08,0,0,1-.76.4A5.84,5.84,0,0,1,37,60.48Z" transform="translate(-6.07 -4)"/><path class="cls-2" d="M28.4,38a10.33,10.33,0,0,1,5.37,1.8,5.64,5.64,0,0,1,.51.34l.28.2h0a18.05,18.05,0,0,1,2.25,2l.15.15,0,0,0,0A18.46,18.46,0,0,1,39,45a18.82,18.82,0,0,1,2.32,4.52h0l.06.16a15.82,15.82,0,0,1,.45,1.59l0,.08c.77,3.61,0,6.56-2.05,7.89A5,5,0,0,1,37,60c-3.47,0-7.72-2.78-10.59-6.92a19,19,0,0,1-2.14-4l0-.05-.13-.37L24,48.44c-1.2-3.51-1-6.72.48-8.64a4.37,4.37,0,0,1,1.09-1l.16-.09.14-.08A4.82,4.82,0,0,1,27,38.21,5.42,5.42,0,0,1,28.4,38m0-1a6.53,6.53,0,0,0-1.67.21,5.47,5.47,0,0,0-1.29.5h0l-.37.22a5.38,5.38,0,0,0-1.33,1.23c-1.76,2.24-1.93,5.91-.58,9.74h0l.15.42a20.25,20.25,0,0,0,2.26,4.27C28.74,58.21,33.26,61,37,61a6.3,6.3,0,0,0,2.5-.49,5.6,5.6,0,0,0,.84-.44c2.52-1.63,3.33-5.07,2.5-8.95h0a17.72,17.72,0,0,0-.51-1.78h0a19.87,19.87,0,0,0-2.5-4.92,20.08,20.08,0,0,0-2.08-2.55l-.2-.21a18.88,18.88,0,0,0-2.64-2.25h0a7,7,0,0,0-.6-.4A11.32,11.32,0,0,0,28.4,37Z" transform="translate(-6.07 -4)"/><path class="cls-1" d="M20.67,39.25a7.76,7.76,0,0,1-7.87-7.63,7.52,7.52,0,0,1,3.14-6.1,8.14,8.14,0,0,1,4-1.49c.24,0,.48,0,.73,0a5.88,5.88,0,0,1,.6,0,7.73,7.73,0,0,1,7.28,7.59,7.47,7.47,0,0,1-2.18,5.27A7,7,0,0,1,25,38a7.48,7.48,0,0,1-1.49.76A8.08,8.08,0,0,1,20.67,39.25Z" transform="translate(-6.07 -4)"/><path class="cls-2" d="M20.67,24.5l.58,0a7.24,7.24,0,0,1,6.8,7.09,7,7,0,0,1-2,4.92,6.14,6.14,0,0,1-1.26,1,7.08,7.08,0,0,1-1.37.7,7.61,7.61,0,0,1-2.71.5,7.26,7.26,0,0,1-7.37-7.13,7,7,0,0,1,2.93-5.69A7.6,7.6,0,0,1,20,24.53c.23,0,.47,0,.7,0m0-1q-.39,0-.78,0a8.65,8.65,0,0,0-4.24,1.59,8,8,0,0,0-3.35,6.5,8.25,8.25,0,0,0,8.37,8.13,8.61,8.61,0,0,0,3.06-.56,8.29,8.29,0,0,0,1.57-.8,7.52,7.52,0,0,0,1.43-1.15,8,8,0,0,0,2.32-5.62,8.21,8.21,0,0,0-7.73-8.09c-.22,0-.43,0-.65,0Z" transform="translate(-6.07 -4)"/><path class="cls-1" d="M19.65,53.58a3.2,3.2,0,1,1,0-6.39,3.3,3.3,0,0,1,3,1.94l0,.06.12.34a2.86,2.86,0,0,1,.12.85A3.26,3.26,0,0,1,19.65,53.58Z" transform="translate(-6.07 -4)"/><path class="cls-2" d="M19.65,47.69a2.83,2.83,0,0,1,2.59,1.64v0l.11.29a2.83,2.83,0,1,1-2.71-2m0-1a3.7,3.7,0,1,0,3.81,3.69,3.45,3.45,0,0,0-.15-1l-.15-.42h0a3.82,3.82,0,0,0-3.5-2.24Z" transform="translate(-6.07 -4)"/><path class="cls-1" d="M51.1,21.41a2.64,2.64,0,0,1-1.88-.66,2.44,2.44,0,0,1-.68-1.8A7.2,7.2,0,0,1,51,14.2a7.64,7.64,0,0,1,4.93-2.34,2.63,2.63,0,0,1,1.87.66,2.44,2.44,0,0,1,.68,1.8A7.2,7.2,0,0,1,56,19.07a7.62,7.62,0,0,1-4.92,2.34Z" transform="translate(-6.07 -4)"/><path class="cls-2" d="M55.87,12.36a2.18,2.18,0,0,1,1.53.52,1.9,1.9,0,0,1,.53,1.44,6.71,6.71,0,0,1-2.26,4.39,7.13,7.13,0,0,1-4.57,2.2,2.18,2.18,0,0,1-1.53-.52A1.92,1.92,0,0,1,49,19a6.71,6.71,0,0,1,2.26-4.39,7.13,7.13,0,0,1,4.57-2.2m0-1a8.07,8.07,0,0,0-5.27,2.48c-2.55,2.47-3.32,5.73-1.73,7.27a3.13,3.13,0,0,0,2.23.8,8.07,8.07,0,0,0,5.27-2.48c2.55-2.47,3.32-5.73,1.73-7.27a3.13,3.13,0,0,0-2.23-.8Z" transform="translate(-6.07 -4)"/></g><g id="Слой_3" data-name="Слой 3"><ellipse class="cls-4" cx="34.97" cy="17.19" rx="2.16" ry="3.85" transform="translate(-10.02 15.13) rotate(-29.02)"/><ellipse class="cls-4" cx="42.21" cy="30.21" rx="7.97" ry="5.09" transform="translate(-8.64 52.47) rotate(-65.97)"/><ellipse class="cls-4" cx="11.97" cy="19.19" rx="2.16" ry="3.85" transform="translate(-13.88 4.22) rotate(-29.02)"/><ellipse class="cls-4" cx="48.97" cy="47.19" rx="3.85" ry="2.16" transform="translate(-24.91 48.35) rotate(-48.29)"/><ellipse class="cls-4" cx="53.97" cy="17.19" rx="3.85" ry="2.16" transform="translate(-3.3 37.43) rotate(-43)"/><ellipse class="cls-4" cx="41.6" cy="9.44" rx="3.46" ry="1.94" transform="translate(8.4 38.36) rotate(-63.3)"/><ellipse class="cls-4" cx="33.03" cy="49.64" rx="5.47" ry="8.66" transform="translate(-28.84 24.62) rotate(-35.71)"/><ellipse class="cls-4" cx="14.08" cy="27.88" rx="3.85" ry="3.87"/></g><g id="Слой_4" data-name="Слой 4"><circle class="cls-5" cx="2.93" cy="13" r="1"/><circle class="cls-5" cx="5.93" cy="18" r="1"/><circle class="cls-5" cx="12.93" cy="23" r="1"/><circle class="cls-5" cx="19.93" cy="28" r="1"/><circle class="cls-5" cx="13.93" cy="32" r="1"/><circle class="cls-5" cx="26.93" cy="38" r="1"/><circle class="cls-5" cx="33.93" cy="47" r="1"/><circle class="cls-5" cx="31.93" cy="53" r="1"/><circle class="cls-5" cx="21.93" cy="47" r="1"/><circle class="cls-5" cx="14.93" cy="46" r="1"/><circle class="cls-5" cx="32.93" cy="33" r="1"/><circle class="cls-5" cx="40.93" cy="27" r="1"/><circle class="cls-5" cx="38.93" cy="19" r="1"/><circle class="cls-5" cx="49.93" cy="11" r="1"/><circle class="cls-5" cx="46.93" cy="13" r="1"/><circle class="cls-5" cx="45.93" cy="40" r="1"/><circle class="cls-5" cx="42.93" cy="41" r="1"/><circle class="cls-5" cx="39.93" cy="45" r="1"/><circle class="cls-5" cx="28.93" cy="10" r="1"/><circle class="cls-5" cx="25.93" cy="11" r="1"/><circle class="cls-5" cx="29.93" cy="16" r="1"/><circle class="cls-5" cx="35.93" cy="3" r="1"/><circle class="cls-5" cx="36.93" cy="7" r="1"/><circle class="cls-6" cx="7.73" cy="18.2" r="0.8"/><circle class="cls-6" cx="17.13" cy="25.2" r="0.8"/><circle class="cls-6" cx="8.73" cy="27.2" r="0.8"/><circle class="cls-6" cx="16.33" cy="32.2" r="0.8"/><circle class="cls-6" cx="40.53" cy="20.4" r="0.8"/><circle class="cls-6" cx="19.93" cy="39.2" r="0.8"/><circle class="cls-6" cx="33.33" cy="50.4" r="0.8"/><circle class="cls-6" cx="23.93" cy="51.2" r="0.8"/><circle class="cls-6" cx="14.93" cy="47.4" r="0.8"/><circle class="cls-6" cx="12.13" cy="46.6" r="0.8"/><circle class="cls-6" cx="22.73" cy="38.2" r="0.8"/><circle class="cls-6" cx="31.93" cy="30.4" r="0.8"/><circle class="cls-6" cx="38.53" cy="32" r="0.8"/><circle class="cls-6" cx="48.13" cy="10.8" r="0.8"/><circle class="cls-6" cx="35.93" cy="19.2" r="0.8"/><circle class="cls-6" cx="42.93" cy="45.6" r="0.8"/><circle class="cls-6" cx="29.73" cy="39.6" r="0.8"/><circle class="cls-6" cx="32.33" cy="43.8" r="0.8"/><circle class="cls-6" cx="17.53" cy="14.8" r="0.8"/><circle class="cls-6" cx="17.13" cy="12.6" r="0.8"/><circle class="cls-6" cx="6.33" cy="11.6" r="0.8"/><circle class="cls-6" cx="31.13" cy="13.2" r="0.8"/><circle class="cls-6" cx="27.93" cy="14.4" r="0.8"/></g><g id="Слой_5" data-name="Слой 5"><circle class="cls-7" cx="33.68" cy="24.25" r="2.25"/><circle class="cls-7" cx="11.93" cy="31" r="2"/><circle class="cls-7" cx="27.43" cy="49.5" r="2.5"/><circle class="cls-7" cx="26.43" cy="12.5" r="1.5"/><circle class="cls-7" cx="33.93" cy="7" r="1"/><circle class="cls-7" cx="14.43" cy="14.5" r="1.5"/><circle class="cls-7" cx="7.43" cy="15.5" r="1.5"/><circle class="cls-7" cx="44.93" cy="15" r="1"/><circle class="cls-7" cx="44.43" cy="43.5" r="1.5"/></g><g id="Слой_6" data-name="Слой 6"><path class="cls-8" d="M7.33,21.05c-1.93-3.63-1.61-7.51.73-8.68A3.15,3.15,0,0,1,9.34,12,14.25,14.25,0,0,0,9,16a10.35,10.35,0,0,0,.29,1.87s0,.05,0,.07a9.76,9.76,0,0,0,1.76,3.65l0,.06s0,0,0,0a11.66,11.66,0,0,0,1.19,1.27,13.21,13.21,0,0,0,3.29,2.16,2.46,2.46,0,0,1-.58.39C12.72,26.66,9.26,24.67,7.33,21.05Z" transform="translate(-6.07 -4)"/><path class="cls-8" d="M39.48,60.49c-4,1.71-10-1.18-13.91-6.86a20.25,20.25,0,0,1-2.26-4.27,3.45,3.45,0,0,1,.15,1,3.81,3.81,0,1,1-3.81-3.69,3.82,3.82,0,0,1,3.5,2.24c-1.35-3.83-1.18-7.5.58-9.74a8.61,8.61,0,0,1-3.06.56,8.25,8.25,0,0,1-8.37-8.13,8,8,0,0,1,3.35-6.5c.27.13.55.26.85.38,0,0-2.05,4.52.16,8l0,0a6.7,6.7,0,0,0,1.55,1.67l.07,0a6.43,6.43,0,0,0,.72.48,4.77,4.77,0,0,0,.63.34h0a10,10,0,0,0,1.14.47,17,17,0,0,0,4.7.91,1.6,1.6,0,0,0-.06.24h0c0,.15-.08.37-.13.65a15.6,15.6,0,0,0,0,4.49c0,.27.08.54.14.83A17.79,17.79,0,0,0,26.33,47a19.67,19.67,0,0,0,1.5,3c.3.5.63,1,1,1.53a23.34,23.34,0,0,0,2.27,2.69q.81.84,1.77,1.68.72.63,1.53,1.26A42,42,0,0,0,39.48,60.49Z" transform="translate(-6.07 -4)"/></g><g id="Слой_7" data-name="Слой 7"><path class="cls-8" d="M40.35,41.84a5.18,5.18,0,0,1-2.82-.22l-.12,0a5.25,5.25,0,0,1-2.52-2.21h0c-1.67-2.7-1.72-7.15.16-11.54a17.46,17.46,0,0,1,2.62-4.33c-2.31.87-5.56-1.11-7.41-4.57-1.68-3.15-1.66-6.51-.07-8.08A21,21,0,0,0,31,14.77c.08.27.18.55.29.82a1.59,1.59,0,0,0,.07.2A14.1,14.1,0,0,0,32.47,18a10,10,0,0,0,6,4.65l.37.11h0a45.72,45.72,0,0,0-1.44,5.88A28.52,28.52,0,0,0,36.89,35C37.06,38,38,40.67,40.35,41.84Z" transform="translate(-6.07 -4)"/><g class="cls-9"><path class="cls-10" d="M22.05,26.92a8.16,8.16,0,0,1,1.29.72l.29.2c.11.09-.2-.16-.05,0l.14.12c.19.16.37.33.55.5s.32.35.47.53c0,0,.17.22.05.06l0,0,.23.32c.13.2.25.4.36.61l.18.34a1.42,1.42,0,0,0,.08.18c.09.19-.1-.24,0,0a1.21,1.21,0,0,0,.51.68,1.15,1.15,0,0,0,.87.11,1.16,1.16,0,0,0,.67-.52,1.09,1.09,0,0,0,.12-.86,9.37,9.37,0,0,0-1.93-3A8.67,8.67,0,0,0,23.18,25a1.25,1.25,0,0,0-.87-.11,1.12,1.12,0,0,0-.67.52,1.14,1.14,0,0,0,.41,1.54Z" transform="translate(-6.07 -4)"/></g><g class="cls-9"><path class="cls-10" d="M44.93,22.47c.23.16.45.33.67.5l-.23-.18A7.28,7.28,0,0,1,46.67,24l-.18-.23a4.82,4.82,0,0,1,.57,1L47,24.51a3.57,3.57,0,0,1,.16.46,1.2,1.2,0,0,0,.52.67,1.15,1.15,0,0,0,.87.11,1.14,1.14,0,0,0,.78-1.38A5.82,5.82,0,0,0,48,22.09a11.79,11.79,0,0,0-1.89-1.56,1.11,1.11,0,0,0-.87-.11,1.14,1.14,0,0,0-.67.51,1.11,1.11,0,0,0-.11.87,1.25,1.25,0,0,0,.51.67Z" transform="translate(-6.07 -4)"/></g><g class="cls-9"><path class="cls-10" d="M38.23,47.59a1.13,1.13,0,0,0,0-2.25,1.13,1.13,0,0,0,0,2.25Z" transform="translate(-6.07 -4)"/></g><g class="cls-9"><path class="cls-10" d="M31,41.33a1.13,1.13,0,0,0,0-2.25,1.13,1.13,0,0,0,0,2.25Z" transform="translate(-6.07 -4)"/></g></g></svg>