<svg xmlns="http://www.w3.org/2000/svg" viewBox="0 0 49.83 54.68"><defs><style>.cls-1{fill:#9e592a;}.cls-2{fill:none;stroke:#bf7847;stroke-miterlimit:10;stroke-width:0.75px;}.cls-3{fill:#337237;}.cls-4{fill:#3cbc3f;}.cls-5{fill:#12dd17;}.cls-6{fill:#4f2a12;opacity:0.44;}.cls-7{fill:#fff9e1;opacity:0.21;}</style></defs><g id="Слой_2" data-name="Слой 2"><g id="Слой_3" data-name="Слой 3"><path class="cls-1" d="M52.32,45.11a22.19,22.19,0,0,1-7.43,9.77C39.34,59,32.54,59.94,28.33,57.5a2.43,2.43,0,0,1-.35-.2c-6.42-4.15-8.35-18.35,1.1-27.2,3.43-3.21,6.6-6.13,9.54-8.41,5.71-4.45,10.56-6.52,14.8-3.78C59.83,22.05,57,33.17,52.32,45.11Z" transform="translate(-7.32 -6.53)"/><path class="cls-2" d="M49.91,17.14S19.74,34.53,25.83,54.41" transform="translate(-7.32 -6.53)"/><path class="cls-2" d="M52.47,17.8s-25.29,17.55-25,38.68" transform="translate(-7.32 -6.53)"/><path class="cls-2" d="M55.53,20.77S43.74,56,31.46,58.05" transform="translate(-7.32 -6.53)"/><path class="cls-2" d="M56.78,26.56S49.43,52.79,37.5,58" transform="translate(-7.32 -6.53)"/><path class="cls-2" d="M54.58,19.16S44.41,50.43,28.89,57.39" transform="translate(-7.32 -6.53)"/><line class="cls-2" x1="46.33" y1="12.53" x2="20.99" y2="50.98"/></g><g id="Слой_6" data-name="Слой 6"><path class="cls-3" d="M42.74,28a11.28,11.28,0,0,1-2.83,2.32A13.44,13.44,0,0,1,36,31.84a16.06,16.06,0,0,1-5,.36l-.08-.13c-4.23-6.64-3.83-11.75-1.51-15.59a16.3,16.3,0,0,1,1-1.45,17.89,17.89,0,0,1,1.73-1.86c5.11-4.76,12.78-6.64,12.78-6.64v0C47.68,18.09,45.86,24.48,42.74,28Z" transform="translate(-7.32 -6.53)"/><path class="cls-4" d="M31,32.2l-.08-.13c.73-6.93,3.86-13,7.35-17.86.26-.36.52-.7.78-1a56.55,56.55,0,0,1,5.89-6.6C51.68,34.78,31,32.2,31,32.2Z" transform="translate(-7.32 -6.53)"/><path class="cls-5" d="M35.57,18.33S41,16,44,22a8.46,8.46,0,0,0-9-2.59Z" transform="translate(-7.32 -6.53)"/><path class="cls-5" d="M44.94,15.91c-.34-.45-2.18-2.56-6.69-1.7.26-.36.52-.7.78-1C39.73,13,42.65,12.36,44.94,15.91Z" transform="translate(-7.32 -6.53)"/></g><g id="Слой_4" data-name="Слой 4"><path class="cls-6" d="M47.61,47.82a18.22,18.22,0,0,1-2.72,7.06,19.68,19.68,0,0,1-9.47,3.86h0l-.35,0a11.48,11.48,0,0,1-6.71-1.28,2.43,2.43,0,0,1-.35-.2C21.56,53.15,13.55,30.85,23,22c2.19-2.05,4.06-4.23,5.89-6.13.4-.42.81-.82,1.21-1.21l.3.37a17.89,17.89,0,0,1,1.73-1.86L35.77,18c2,2.71,4.21,5.59,4.51,6,.6.89,1.2,1.84,1.79,2.82.23.38.45.76.67,1.15a44.25,44.25,0,0,1,2.19,4.29,37.19,37.19,0,0,1,1.82,4.92c.27.92.49,1.84.67,2.78A22.64,22.64,0,0,1,47.61,47.82Z" transform="translate(-7.32 -6.53)"/></g><path class="cls-1" d="M42.53,43.27A22.56,22.56,0,0,1,37.2,57.05a13.5,13.5,0,0,1-1.65,1.57l-.13.12a11.85,11.85,0,0,1-2.78,1.65,4.4,4.4,0,0,1-.5.21l-.46.15c-8.72,2.66-23.18-6.52-24-22C6.87,22.32,6.62,9.85,15.35,7.19l.12,0a8.29,8.29,0,0,1,3.37-.31c3.91.39,7.66,3.37,11.26,7.81l.3.37c1.33,1.68,2.65,3.57,4,5.6,1.69,2.64,3.34,5.52,5,8.52.21.39.41.78.59,1.17l.23.48A26.37,26.37,0,0,1,42.53,43.27Z" transform="translate(-7.32 -6.53)"/><path class="cls-6" d="M32.78,58.78a11.23,11.23,0,0,1-.14,1.61,4.4,4.4,0,0,1-.5.21l-.46.15c-8.72,2.66-23.18-6.52-24-22C6.87,22.32,6.62,9.85,15.35,7.19l.12,0c.7,1.5,1.59,3.45,2.6,5.75C23.68,25.58,33.06,48.42,32.78,58.78Z" transform="translate(-7.32 -6.53)"/><path class="cls-2" d="M11.94,9.8S4.56,50.73,27.4,60.49" transform="translate(-7.32 -6.53)"/><path class="cls-2" d="M14.52,8s-3.47,36.61,16,52.61" transform="translate(-7.32 -6.53)"/><path class="cls-2" d="M19.59,7.46s23.07,37.92,15.46,50.7" transform="translate(-7.32 -6.53)"/><path class="cls-2" d="M25.83,10.79S44.1,37.7,39.63,52.58" transform="translate(-7.32 -6.53)"/><path class="cls-2" d="M17.39,7.09S38.08,40.47,32.48,60" transform="translate(-7.32 -6.53)"/><line class="cls-2" x1="9.25" y1="1.33" x2="24.82" y2="54.08"/></g><g id="Слой_5" data-name="Слой 5"><path class="cls-7" d="M42.53,43.27c-.23,6.41-2.65,12.31-7,15.35a.61.61,0,0,1-.16.12L35,59c0-.07,0-.15,0-.22C37,47.93,38,42.89,37,37q-.42-2.67-1-5.16A49,49,0,0,0,33.25,23a27.52,27.52,0,0,0-3.86-6.54l-.17-.22-.33-.39a49.74,49.74,0,0,0-10-9c3.91.39,7.66,3.37,11.26,7.81l.3.37c1.33,1.68,2.65,3.57,4,5.6,1.69,2.64,3.34,5.52,5,8.52.21.39.41.78.59,1.17l.23.48A28.24,28.24,0,0,1,42.53,43.27Z" transform="translate(-7.32 -6.53)"/></g></svg>