<svg xmlns="http://www.w3.org/2000/svg" viewBox="0 0 51.73 54.2"><defs><style>.cls-1{fill:#efdc7f;}.cls-2{fill:#ddc872;}.cls-3{fill:#d6b167;}.cls-4{fill:#fff8d9;opacity:0.73;}.cls-5{fill:#bc9b58;opacity:0.48;}</style></defs><g id="Слой_2" data-name="Слой 2"><path class="cls-1" d="M55.48,19.12a8.91,8.91,0,0,1-2.23,4.07,7.05,7.05,0,0,1-8.16,1.22c-3.3-1.71-5.5-6.31-1.54-11.49A24.83,24.83,0,0,1,52.1,5.76c1.38-.64,2.46-.86,3-.59C56.52,5.91,57.28,12.41,55.48,19.12Z" transform="translate(-6.72 -5.06)"/><path class="cls-1" d="M18.13,23.35a6,6,0,0,1-3.32,1.39c-3.08.25-6.67-2-6.17-7.42S11.57,7.6,13,6.85a1,1,0,0,1,.34-.1c1.35-.11,4.76,4.14,6.46,9.66C20.79,19.61,19.78,22,18.13,23.35Z" transform="translate(-6.72 -5.06)"/><path class="cls-1" d="M22.39,53.43a7.1,7.1,0,0,1-2.7,2.26c-3.36,1.57-8.35.53-10.06-5.76-1.8-6.64-.63-13.18.84-13.87a1.52,1.52,0,0,1,.92,0c2.2.4,6.81,3.52,10.41,8.19C24.52,47.75,24.06,51.15,22.39,53.43Z" transform="translate(-6.72 -5.06)"/><path class="cls-2" d="M54.82,40.31c-4.25,1.85-8.72,1.71-9.32.8a1.89,1.89,0,0,1,0-1.37,17.67,17.67,0,0,1,4.32-7c2.68-2.78,5.74-2,7.34-.33a3.67,3.67,0,0,1,.5.62C59.05,35.13,58.85,38.56,54.82,40.31Z" transform="translate(-6.72 -5.06)"/><path class="cls-2" d="M45.6,53.9a6.83,6.83,0,0,1-3.1,2.93c-3.23,1.5-8,.47-9.62-5.58-1.69-6.38-.53-12.65.88-13.3a.82.82,0,0,1,.37-.07c1.82-.11,6.72,3,10.46,7.95C46.89,48.85,46.78,51.76,45.6,53.9Z" transform="translate(-6.72 -5.06)"/><path class="cls-2" d="M30.53,34.6a6,6,0,0,1-5,2.21,5.56,5.56,0,0,1-4-2.31,5.18,5.18,0,0,1,0-6,7.52,7.52,0,0,1,3.07-2.43c4.81-2.24,9.92-2.21,10.64-1.18S34.15,30.67,30.53,34.6Z" transform="translate(-6.72 -5.06)"/><path class="cls-3" d="M35.49,15.11A3.81,3.81,0,0,1,32,16.51a3.58,3.58,0,0,1-2.37-1.46c-1.07-1.53-1-4.09,2-5.47L32,9.42c3-1.3,6.11-1.25,6.56-.61S37.85,12.55,35.49,15.11Z" transform="translate(-6.72 -5.06)"/><path class="cls-3" d="M11.64,33.12a3,3,0,0,1-3.79.24,2.82,2.82,0,0,1-.85-1C6.34,31,6.73,29,9.26,28.25a10.63,10.63,0,0,1,2.45-.41c1.65-.07,2.95.26,3.15.66C15.14,29.09,13.83,31.38,11.64,33.12Z" transform="translate(-6.72 -5.06)"/><path class="cls-3" d="M27.64,58.12a3.47,3.47,0,0,1-1.89.81A2.86,2.86,0,0,1,23,57.35c-.66-1.35-.27-3.37,2.26-4.1A10,10,0,0,1,28,52.84c1.53,0,2.7.28,2.89.66C31.14,54.09,29.83,56.38,27.64,58.12Z" transform="translate(-6.72 -5.06)"/><path class="cls-3" d="M55.33,59a3.35,3.35,0,0,1-3.89-.78A4.93,4.93,0,0,1,50.31,56c-.86-3.35-.22-6.62.52-7,.32-.15,1,.09,1.91.65a14.31,14.31,0,0,1,3.73,3.52C58.39,55.78,57,58.18,55.33,59Z" transform="translate(-6.72 -5.06)"/></g><g id="Слой_3" data-name="Слой 3"><path class="cls-4" d="M22.39,53.43c.27-7.9-7.71-14.88-11-17.41,2.2.4,6.81,3.52,10.41,8.19C24.52,47.75,24.06,51.15,22.39,53.43Z" transform="translate(-6.72 -5.06)"/><path class="cls-4" d="M55.48,19.12a8.91,8.91,0,0,1-2.23,4.07C56.14,13.12,54,8.08,52.1,5.76c1.38-.64,2.46-.86,3-.59C56.52,5.91,57.28,12.41,55.48,19.12Z" transform="translate(-6.72 -5.06)"/><path class="cls-4" d="M18.13,23.35C19.52,14.2,15.07,8.81,13,6.85a1,1,0,0,1,.34-.1c1.35-.11,4.76,4.14,6.46,9.66C20.79,19.61,19.78,22,18.13,23.35Z" transform="translate(-6.72 -5.06)"/><path class="cls-4" d="M45.6,53.9c-.36-6.59-8.44-13.62-11.47-16,1.82-.11,6.72,3,10.46,7.95C46.89,48.85,46.78,51.76,45.6,53.9Z" transform="translate(-6.72 -5.06)"/></g><g id="Слой_4" data-name="Слой 4"><path class="cls-5" d="M25.51,36.81a5.56,5.56,0,0,1-4-2.31,5.18,5.18,0,0,1,0-6C21.34,31,22.05,34,25.51,36.81Z" transform="translate(-6.72 -5.06)"/><path class="cls-5" d="M11.64,33.12a3,3,0,0,1-3.79.24l3.86-5.52c1.65-.07,2.95.26,3.15.66C15.14,29.09,13.83,31.38,11.64,33.12Z" transform="translate(-6.72 -5.06)"/><path class="cls-5" d="M35.49,15.11A3.81,3.81,0,0,1,32,16.51V9.42c3-1.3,6.11-1.25,6.56-.61S37.85,12.55,35.49,15.11Z" transform="translate(-6.72 -5.06)"/><path class="cls-5" d="M57.17,32.43c-2.73-.07-7.11,1.07-11.66,7.31a17.67,17.67,0,0,1,4.32-7C52.51,30,55.57,30.74,57.17,32.43Z" transform="translate(-6.72 -5.06)"/><path class="cls-5" d="M55.33,59a3.35,3.35,0,0,1-3.89-.78l1.3-8.49a14.31,14.31,0,0,1,3.73,3.52C58.39,55.78,57,58.18,55.33,59Z" transform="translate(-6.72 -5.06)"/><path class="cls-5" d="M27.64,58.12a3.47,3.47,0,0,1-1.89.81L28,52.84c1.53,0,2.7.28,2.89.66C31.14,54.09,29.83,56.38,27.64,58.12Z" transform="translate(-6.72 -5.06)"/></g></svg>