<svg xmlns="http://www.w3.org/2000/svg" xmlns:xlink="http://www.w3.org/1999/xlink" viewBox="0 0 54.76 52.59"><defs><style>.cls-1{fill:url(#Безымянный_градиент_10);}.cls-2{fill:#a57b55;}.cls-3{fill:#492d16;opacity:0.22;}.cls-4{fill:#99723f;}.cls-5,.cls-9{fill:#d1b093;}.cls-6{fill:#8e5c1b;stroke:#c98d4c;stroke-miterlimit:10;}.cls-7{fill:#5b3911;}.cls-8{fill:#a37445;}.cls-9{opacity:0.43;}</style><linearGradient id="Безымянный_градиент_10" x1="36.2" y1="14.24" x2="13.59" y2="53.41" gradientUnits="userSpaceOnUse"><stop offset="0.56" stop-color="#7a582b"/><stop offset="1" stop-color="#3d2b14"/></linearGradient></defs><g id="Слой_4" data-name="Слой 4"><path class="cls-1" d="M47.85,36.14v.26a17.45,17.45,0,0,1-7,14.17c-.24.18-2.29,1.34-4.34,2.48l-4.43,2.44-.46.23C12.2,64.94-3.66,33.46,6.6,19.28c.21-.29.41-.55.64-.82l.06-.07c.22-.26.44-.5.68-.75a10.7,10.7,0,0,0,3.11-6.75,1.22,1.22,0,0,1,1.25-1.25,1.06,1.06,0,0,1,.46.1l0,0a12.25,12.25,0,0,0,4.07,1,12.08,12.08,0,0,0,3.39-.21c.49-.1,1-.18,1.46-.24C35.5,8.62,47.81,23,47.85,36.14Z" transform="translate(-3.38 -7.9)"/><path class="cls-2" d="M27.38,16.28c1.54,1.76,3.94,2.09,5.77,3.42a5.82,5.82,0,0,1,1.86,3,6.23,6.23,0,0,0,2.17,3.21c.8.54,1.55-.76.75-1.3-1-.68-1.34-2-1.75-3.07A6.47,6.47,0,0,0,34,18.48c-1.74-1.28-4.11-1.6-5.57-3.26-.64-.72-1.7.34-1.06,1.06Z" transform="translate(-3.38 -7.9)"/><path class="cls-2" d="M20.05,19A21.5,21.5,0,0,0,23,22.09.75.75,0,1,0,24.05,21c-.5-.46-1-.92-1.48-1.4-.23-.23-.46-.47-.68-.72l-.31-.36-.08-.11s-.08-.14,0,0l-.16-.21a.81.81,0,0,0-.45-.34.75.75,0,0,0-.85,1.1Z" transform="translate(-3.38 -7.9)"/><path class="cls-2" d="M40.44,32.16l.3.2c-.06,0,0,0,0,0l.14.11.25.26.11.13s.06.08,0,0a4.17,4.17,0,0,1,.38.61,2.59,2.59,0,0,1,.14.29c0,.07,0-.07,0,.06l.06.17a7.88,7.88,0,0,1,.36,1.37l0,.19s0,.1,0,0c0,.13,0,.25,0,.37s0,.5.05.75a.75.75,0,0,0,1.5,0c-.08-2.19-.66-4.64-2.66-5.87a.75.75,0,0,0-.75,1.3Z" transform="translate(-3.38 -7.9)"/><path class="cls-2" d="M38.9,42.34c-2.43-2.06-1.83-5.27-2.43-8.06A8.54,8.54,0,0,0,34,30.5l-3.66-4.11c-.64-.72-1.7.34-1.06,1.06l3.56,4a14.8,14.8,0,0,1,1.66,2,5.14,5.14,0,0,1,.63,2.37c.22,2.72.43,5.71,2.67,7.62.73.62,1.79-.44,1.06-1.07Z" transform="translate(-3.38 -7.9)"/><path class="cls-2" d="M16.82,23.48c.08,4.26,2.36,8.06,5.26,11.05.67.7,1.73-.36,1.06-1.06-2.62-2.7-4.74-6.14-4.82-10a.75.75,0,0,0-1.5,0Z" transform="translate(-3.38 -7.9)"/><path class="cls-2" d="M5.5,26.91c-.77,2.36,0,5.31.77,7.57A26.12,26.12,0,0,0,10,41.26c.57.77,1.87,0,1.29-.75a25.34,25.34,0,0,1-3.51-6.2c-.77-2.07-1.57-4.82-.85-7,.3-.92-1.15-1.31-1.45-.4Z" transform="translate(-3.38 -7.9)"/><path class="cls-2" d="M22.15,54c-1-.11-1.78-1.09-2.33-1.87-.73-1.05-1.35-2.16-2-3.25a14.28,14.28,0,0,0-4.69-5.19A.75.75,0,0,0,12.36,45c2.19,1.29,3.48,3.52,4.74,5.64s2.51,4.61,5,4.88a.74.74,0,0,0,.75-.75.77.77,0,0,0-.75-.75Z" transform="translate(-3.38 -7.9)"/><g id="Слой_5" data-name="Слой 5"><path class="cls-3" d="M36.49,53.05l-4.43,2.44-.46.23C12.2,64.94-3.66,33.46,6.6,19.28c.21-.29.41-.55.64-.82l.06-.07c.22-.26.44-.5.68-.75a10.7,10.7,0,0,0,3.11-6.75,1.22,1.22,0,0,1,1.25-1.25c0,2.66.46,6.6-.77,11.19-.22.82.72,2.34.44,3.14-1.66,4.69.05,9,1.94,13.58C16.3,43.34,23.86,48.72,36.49,53.05Z" transform="translate(-3.38 -7.9)"/></g><path class="cls-4" d="M10.23,10.21c.59,3.76,0,7.51,0,11.29a41.23,41.23,0,0,0,1.5,12A26.34,26.34,0,0,0,25.82,49.78,85.69,85.69,0,0,0,36.93,54c1.84.59,2.63-2.3.79-2.9-6.28-2-12.86-4.26-17.66-9C14.6,36.71,13.17,28.91,13.2,21.5c0-2.25.13-4.49.28-6.73a23.52,23.52,0,0,0-.36-5.36c-.3-1.9-3.19-1.09-2.89.8Z" transform="translate(-3.38 -7.9)"/><path class="cls-5" d="M7,8s.39-.06,1.11-.1Z" transform="translate(-3.38 -7.9)"/></g><g id="Слой_3" data-name="Слой 3"><path class="cls-6" d="M28.72,57c-.41-.31-5.64-5.62-5.88-5.88-4.36-4.74-4.44-10.32-2.11-15.31,4.48-9.66,18-17.16,26.83-12.29a9.36,9.36,0,0,0,2.83,1,8.36,8.36,0,0,0,3.23,0h0a1,1,0,0,1,1.29,1.11v0a10.21,10.21,0,0,0,1,6.12C63.71,46.76,43.08,67.85,28.72,57Z" transform="translate(-3.38 -7.9)"/><path class="cls-7" d="M46.86,27.26C36,19.26,14.27,37.8,25.18,49.66c.2.22,4.52,4.6,4.85,4.85,12.27,9.27,30.07-9.7,21.71-22.1C51.46,32,47.42,27.68,46.86,27.26Z" transform="translate(-3.38 -7.9)"/><path class="cls-8" d="M46.91,31.26l-5,4L38,38.44a5.17,5.17,0,0,0-.78.77l-7.83,9.46c-1.22,1.87-2.34.82-3.14-.13-1.79-2.12-3.95-5.91-.29-9.08a8.9,8.9,0,0,1,1.23-.9,4.43,4.43,0,0,1,3-6.68,2.62,2.62,0,0,0,2.16-1.79A3.92,3.92,0,0,1,38,27.52a2.3,2.3,0,0,0,2.61-.27c1.36-1.18,4.23-1.8,7,1.54C48.23,29.66,47.7,30.48,46.91,31.26Z" transform="translate(-3.38 -7.9)"/><path class="cls-8" d="M50.66,41.64a7.15,7.15,0,0,1-.6.44c2.19,3,.51,6.72-2.41,7a2.23,2.23,0,0,0-1.94,1.8,3.7,3.7,0,0,1-5.84,2.54,2,2,0,0,0-2.35.36c-1.42,1.37-4.06,2.58-7.63-1.44-.65-.73-.59-1.76.59-2.93l7-6.14h0L38.94,42a16.53,16.53,0,0,0,1.75-1.8L47.45,32c.72-.74,1.69-1.58,2.42-.84C51.9,33.17,55.14,38.06,50.66,41.64Z" transform="translate(-3.38 -7.9)"/></g><g id="Слой_6" data-name="Слой 6"><path class="cls-9" d="M47.65,49a2.23,2.23,0,0,0-1.94,1.8,3.7,3.7,0,0,1-5.84,2.54,2,2,0,0,0-2.35.36c-1.42,1.37-4.06,2.58-7.63-1.44-.65-.73-.59-1.76.59-2.93l7-6.14h0l13.15-1.59a7.15,7.15,0,0,1-.6.44C52.25,45,50.57,48.8,47.65,49Z" transform="translate(-3.38 -7.9)"/><path class="cls-9" d="M41.89,35.29,38,38.44a5.17,5.17,0,0,0-.78.77l-7.83,9.46c-1.22,1.87-2.34.82-3.14-.13-1.79-2.12-3.95-5.91-.29-9.08Z" transform="translate(-3.38 -7.9)"/></g></svg>